<?xml version="1.0" encoding="UTF-8"?>
<svg width="132px" height="66px" viewBox="0 0 132 66" version="1.1" xmlns="http://www.w3.org/2000/svg" xmlns:xlink="http://www.w3.org/1999/xlink">
    <title>编组 49</title>
    <g id="首页" stroke="none" stroke-width="1" fill="none" fill-rule="evenodd">
        <g id="画板" transform="translate(-2546.000000, -608.000000)">
            <g id="编组-49" transform="translate(2546.000000, 608.000000)">
                <rect id="矩形" x="0" y="0" width="132" height="66"></rect>
                <path id="路径-16备份-3" d="M106.914615,7.5 L107.033127,7.8318318 L125.529625,59.6196738 C127.731937,59.0976243 130.021137,60.305407 130.800094,62.4864862 C131.635985,64.8269798 130.416263,67.401948 128.075769,68.2378386 C125.735276,69.0737292 123.160308,67.8540074 122.324417,65.5135138 C121.54542,63.3323208 122.551736,60.947485 124.586711,59.9563874 L106.21,8.5 L6.67910172e-13,8.5 L6.67910172e-13,7.5 L106.914615,7.5 Z M125.385078,60.7039033 C123.564694,61.3540404 122.616022,63.3567935 123.266159,65.1771774 C123.916296,66.9975613 125.919049,67.9462338 127.739433,67.2960967 C129.559817,66.6459596 130.50849,64.6432065 129.858352,62.8228226 C129.208215,61.0024387 127.205462,60.0537662 125.385078,60.7039033 Z" transform="translate(63.281128, 36.000000) scale(1, -1) translate(-63.281128, -36.000000) " fill="#FFFFFF" fill-rule="nonzero"></path>
            </g>
        </g>
    </g>
</svg>