<?xml version="1.0" encoding="UTF-8"?>
<svg width="254px" height="72px" viewBox="0 0 254 72" version="1.1" xmlns="http://www.w3.org/2000/svg" xmlns:xlink="http://www.w3.org/1999/xlink">
    <title>编组 50</title>
    <g id="首页" stroke="none" stroke-width="1" fill="none" fill-rule="evenodd">
        <g id="1920" transform="translate(-1297.000000, -2967.000000)">
            <g id="编组-50" transform="translate(1297.000000, 2967.000000)">
                <rect id="矩形" x="0" y="0" width="254" height="72"></rect>
                <path id="路径-16备份-2" d="M183.753235,5.5 L183.895585,5.62731823 L251.00037,65.6450328 C252.68574,64.1344196 255.273735,64.1019146 256.999962,65.6458641 C258.8524,67.3026974 259.010969,70.147524 257.354136,71.9999621 C255.697303,73.8524002 252.852476,74.0109692 251.000038,72.3541359 C249.273593,70.8099916 249.018437,68.2339605 250.332953,66.3911034 L183.371,6.5 L6,6.5 L6,5.5 L183.753235,5.5 Z M251.391228,66.6666962 C250.10258,68.1074814 250.225911,70.3201242 251.666696,71.6087724 C253.107481,72.8974205 255.320124,72.774089 256.608772,71.3333038 C257.89742,69.8925186 257.774089,67.6798758 256.333304,66.3912276 C254.892519,65.1025795 252.679876,65.225911 251.391228,66.6666962 Z" transform="translate(130.000000, 37.500000) scale(-1, -1) translate(-130.000000, -37.500000) " fill="#303033" fill-rule="nonzero"></path>
            </g>
        </g>
    </g>
</svg>