<?xml version="1.0" encoding="UTF-8"?>
<svg width="243px" height="52px" viewBox="0 0 243 52" version="1.1" xmlns="http://www.w3.org/2000/svg" xmlns:xlink="http://www.w3.org/1999/xlink">
    <title>编组 47</title>
    <g id="首页" stroke="none" stroke-width="1" fill="none" fill-rule="evenodd">
        <g id="1920" transform="translate(-313.000000, -2543.000000)">
            <g id="编组-47" transform="translate(313.000000, 2543.000000)">
                <rect id="矩形" x="0" y="0" width="243" height="52"></rect>
                <g id="路径-17" transform="translate(0.000000, 3.000000)" fill="#303033" fill-rule="nonzero">
                    <path id="路径-16" d="M177.721975,-0.5 L177.852116,-0.407407456 L234.645767,39.9995503 C236.152814,38.3106174 238.72149,37.9905961 240.608745,39.3333329 C242.63379,40.7741032 243.107437,43.583701 241.666667,45.6087454 C240.225897,47.6337897 237.416299,48.1074374 235.391255,46.6666671 C233.504123,45.3240186 232.964273,42.7926383 234.065491,40.8152301 L177.403,0.5 L0,0.5 L0,-0.5 L177.721975,-0.5 Z M235.148148,40.9709758 C234.027549,42.5460103 234.395941,44.7312531 235.970976,45.8518522 C237.54601,46.9724513 239.731253,46.6040586 240.851852,45.0290242 C241.972451,43.4539897 241.604059,41.2687469 240.029024,40.1481478 C238.45399,39.0275487 236.268747,39.3959414 235.148148,40.9709758 Z"></path>
                </g>
            </g>
        </g>
    </g>
</svg>