<?xml version="1.0" encoding="UTF-8"?>
<svg width="253px" height="75px" viewBox="0 0 253 75" version="1.1" xmlns="http://www.w3.org/2000/svg" xmlns:xlink="http://www.w3.org/1999/xlink">
    <title>编组 48</title>
    <g id="首页" stroke="none" stroke-width="1" fill="none" fill-rule="evenodd">
        <g id="画板" transform="translate(-2075.000000, -582.000000)">
            <g id="编组-48" transform="translate(2075.000000, 582.000000)">
                <rect id="矩形" x="0" y="0" width="252" height="75"></rect>
                <path id="路径-16" d="M177.753235,8.5 L177.895585,8.62731823 L245.00037,68.6450328 C246.68574,67.1344196 249.273735,67.1019146 250.999962,68.6458641 C252.8524,70.3026974 253.010969,73.147524 251.354136,74.9999621 C249.697303,76.8524002 246.852476,77.0109692 245.000038,75.3541359 C243.273593,73.8099916 243.018437,71.2339605 244.332953,69.3911034 L177.371,9.5 L0,9.5 L0,8.5 L177.753235,8.5 Z M245.391228,69.6666962 C244.10258,71.1074814 244.225911,73.3201242 245.666696,74.6087724 C247.107481,75.8974205 249.320124,75.774089 250.608772,74.3333038 C251.89742,72.8925186 251.774089,70.6798758 250.333304,69.3912276 C248.892519,68.1025795 246.679876,68.225911 245.391228,69.6666962 Z" transform="translate(124.000000, 40.500000) scale(1, -1) translate(-124.000000, -40.500000) " fill="#FFFFFF" fill-rule="nonzero"></path>
            </g>
        </g>
    </g>
</svg>