<?xml version="1.0" encoding="UTF-8"?>
<svg width="244px" height="50px" viewBox="0 0 244 50" version="1.1" xmlns="http://www.w3.org/2000/svg" xmlns:xlink="http://www.w3.org/1999/xlink">
    <title>编组 25</title>
    <g id="首页" stroke="none" stroke-width="1" fill="none" fill-rule="evenodd">
        <g id="画板" transform="translate(-3068.000000, -162.000000)">
            <g id="编组-46" transform="translate(3068.000000, 162.000000)">
                <rect id="矩形" x="0" y="0" width="244" height="50"></rect>
                <path id="路径-16备份" d="M183.721975,1.5 L183.852116,1.59259254 L240.645767,41.9995503 C242.152814,40.3106174 244.72149,39.9905961 246.608745,41.3333329 C248.63379,42.7741032 249.107437,45.583701 247.666667,47.6087454 C246.225897,49.6337897 243.416299,50.1074374 241.391255,48.6666671 C239.504123,47.3240186 238.964273,44.7926383 240.065491,42.8152301 L183.403,2.5 L6,2.5 L6,1.5 L183.721975,1.5 Z M241.148148,42.9709758 C240.027549,44.5460103 240.395941,46.7312531 241.970976,47.8518522 C243.54601,48.9724513 245.731253,48.6040586 246.851852,47.0290242 C247.972451,45.4539897 247.604059,43.2687469 246.029024,42.1481478 C244.45399,41.0275487 242.268747,41.3959414 241.148148,42.9709758 Z" transform="translate(125.000000, 23.500000) scale(-1, 1) translate(-125.000000, -23.500000) " fill="#303033" fill-rule="nonzero"></path>
            </g>
        </g>
    </g>
</svg>