<?xml version="1.0" encoding="UTF-8"?>
<svg width="44px" height="44px" viewBox="0 0 44 44" version="1.1" xmlns="http://www.w3.org/2000/svg" xmlns:xlink="http://www.w3.org/1999/xlink">
    <title>编组</title>
    <g id="首页" stroke="none" stroke-width="1" fill="none" fill-rule="evenodd">
        <g id="1920" transform="translate(-1728.000000, -868.000000)">
            <g id="编组" transform="translate(1728.000000, 868.000000)">
                <rect id="矩形" x="0" y="0" width="44" height="44"></rect>
                <path d="M20.1666667,31.6114333 L12.9254583,24.3703167 C12.2094867,23.6542167 11.0486933,23.6542167 10.3327217,24.3703167 C9.61676833,25.0862333 9.61676833,26.2471 10.3327217,26.9630167 L20.70365,37.3338167 C21.4195667,38.0499167 22.5804333,38.0499167 23.29635,37.3338167 L33.6673333,26.9630167 C34.38325,26.2471 34.38325,25.0862333 33.6673333,24.3703167 C32.9512333,23.6542167 31.79055,23.6542167 31.07445,24.3703167 L23.8333333,31.6114333 L23.8333333,7.33333333 C23.8333333,6.32082 23.01255,5.5 22,5.5 C20.98745,5.5 20.1666667,6.32082 20.1666667,7.33333333 L20.1666667,31.6114333 Z" id="路径" fill="#FFFFFF" fill-rule="nonzero"></path>
            </g>
        </g>
    </g>
</svg>