<?xml version="1.0" encoding="UTF-8"?>
<svg width="140px" height="140px" viewBox="0 0 140 140" version="1.1" xmlns="http://www.w3.org/2000/svg" xmlns:xlink="http://www.w3.org/1999/xlink">
    <title>编组 42</title>
    <defs>
        <rect id="path-1" x="0" y="0" width="140" height="140"></rect>
    </defs>
    <g id="首页" stroke="none" stroke-width="1" fill="none" fill-rule="evenodd">
        <g id="1920" transform="translate(-1680.000000, -820.000000)">
            <g id="编组-42" transform="translate(1680.000000, 820.000000)">
                <mask id="mask-2" fill="white">
                    <use xlink:href="#path-1"></use>
                </mask>
                <g id="蒙版"></g>
                <g mask="url(#mask-2)">
                    <g transform="translate(71.701352, 69.750051) rotate(-330.000000) translate(-71.701352, -69.750051) translate(6.000000, 3.000000)">
                        <g id="编组" transform="translate(0.000000, 3.500103)">
                            <polygon id="Fill-1" fill="#FFFFFF" points="77.231889 0 76.9630654 1.14007869 79.1568327 1.66378479 77.8391795 7.26729964 79.2292618 7.60005659 80.5483079 1.99654175 82.732325 2.52024785 83.0025414 1.38157319"></polygon>
                            <g transform="translate(0.000000, 4.047420)" fill="#FFFFFF">
                                <path d="M90.3936567,3.39215532 L91.7127027,4.02397233 C92.5512093,4.42552714 93.0345346,4.30197181 93.3131082,3.70946786 C93.5861103,3.13100429 93.4301091,2.67609604 92.5484236,2.25207663 L91.2279846,1.62166366 L90.3936567,3.39215532 Z M91.3129496,8.09006578 L90.8741962,4.82427387 L89.9312245,4.37357774 L88.7528581,6.87416905 L87.4630622,6.25779646 L90.4117639,0 L93.2546077,1.36191666 C94.7756197,2.09061228 95.1906944,3.24894346 94.6976191,4.29916373 C94.2324011,5.2862023 93.4955739,5.73409036 92.2684571,5.39852533 L92.9495696,8.87351888 L91.3129496,8.09006578 Z" id="Fill-2"></path>
                                <polygon id="Fill-4" points="102.269668 6.6863088 103.424355 7.52171128 99.4142883 13.1519028 98.2596006 12.3179044"></polygon>
                                <path d="M110.826892,15.5335722 C110.677855,15.6318548 110.463354,15.7371576 110.273924,15.8284201 C110.230745,15.8466726 107.964548,16.9277817 107.964548,16.9277817 L109.414524,18.4315062 C109.414524,18.4315062 110.516283,16.1302882 110.535783,16.0895711 C110.644426,15.8873897 110.747499,15.6809961 110.839428,15.5448045 L110.826892,15.5335722 Z M109.144308,22.0791964 L108.062049,20.9559661 L108.822555,19.4129286 L106.947755,17.4669322 L105.40585,18.201244 L104.329163,17.0836299 L111.08318,14.1435747 L112.253189,15.3580674 L109.144308,22.0791964 Z" id="Fill-6"></path>
                                <polygon id="Fill-8" points="119.409885 26.6931454 114.576632 29.7651801 113.813341 28.5478793 118.647986 25.4744406 117.445941 23.5523128 118.42652 22.927516 121.589723 27.9848602 120.607751 28.609657"></polygon>
                                <polygon id="Fill-10" points="120.171644 41.8194062 122.86963 40.8323676 121.797121 37.8600196 119.099136 38.8470582 118.611632 37.4921617 125.081504 35.1221459 125.570401 36.4770424 122.951809 37.4360002 124.024317 40.4083482 126.642909 39.4507944 127.133199 40.8127111 120.663327 43.1827269"></polygon>
                                <path d="M126.300821,54.4016909 C127.735475,54.219166 128.543339,53.3851675 128.399873,52.2478969 C128.264765,51.1695959 127.263293,50.50689 125.845353,50.6866069 C124.343841,50.877556 123.651586,51.807029 123.776944,52.8277645 C123.924588,53.998732 124.874524,54.5828118 126.300821,54.4016909 M126.495822,55.9559607 C124.380056,56.225536 122.807508,55.0405281 122.555399,53.0257339 C122.308861,51.0600809 123.527621,49.4693061 125.650352,49.1983268 C127.707618,48.9371758 129.348416,49.985992 129.618633,52.1454022 C129.880492,54.2430346 128.437481,55.7102541 126.495822,55.9559607" id="Fill-12"></path>
                                <path d="M122.712514,67.6419077 C122.712514,67.6419077 127.29505,65.3266494 127.45523,65.2480233 C127.60566,65.1693972 128.016556,64.9981045 128.147485,64.9433471 L128.148878,64.9335188 C127.881448,64.9250946 127.381408,64.8843775 126.973298,64.8450644 L123.018945,64.4603581 L123.147089,63.1096737 L130,63.7751876 L129.848177,65.3449019 C129.848177,65.3449019 125.382642,67.5885543 125.24057,67.6601602 C125.081783,67.7373823 124.654172,67.9241193 124.532993,67.9634324 L124.530207,67.9788768 C124.748887,67.9830889 125.315785,68.0308262 125.555358,68.0532908 L129.554282,68.433785 L129.423353,69.7928936 L122.571834,69.1273797 L122.712514,67.6419077 Z" id="Fill-14"></path>
                                <polygon id="Fill-16" points="112.578842 103.321457 108.273486 99.5249384 109.215065 98.4396172 113.521813 102.237539 115.008004 100.523209 115.882725 101.29543 111.972944 105.799583 111.099616 105.028767"></polygon>
                                <path d="M103.226011,109.565634 L102.056002,110.452986 C101.313603,111.017409 101.196602,111.506014 101.587998,112.032528 C101.97243,112.545002 102.444612,112.616608 103.228797,112.024104 L104.398806,111.136752 L103.226011,109.565634 Z M98.6587966,108.205121 L101.739821,109.33116 L102.576935,108.696535 L100.920814,106.478155 L102.062966,105.610459 L106.206749,111.157813 L103.684265,113.071516 C102.333183,114.096464 101.119995,113.929383 100.424953,112.998506 C99.7716982,112.122387 99.7187692,111.253287 100.585133,110.311178 L97.2074281,109.305887 L98.6587966,108.205121 Z" id="Fill-18"></path>
                                <polygon id="Fill-20" points="94.7926127 118.645266 93.5251027 119.288315 90.438507 113.095104 91.7074098 112.452055"></polygon>
                                <path d="M83.0294238,122.169822 C83.0113165,121.991509 83.0196737,121.751418 83.0280309,121.538005 C83.0322095,121.493075 83.1450319,118.964403 83.1450319,118.964403 L81.1448733,119.552695 C81.1448733,119.552695 82.6505637,121.613823 82.678421,121.648924 C82.8037792,121.841277 82.9374945,122.030822 83.0127094,122.174034 L83.0294238,122.169822 Z M78.0708134,117.603891 L79.5653609,117.164427 L80.5626544,118.565657 L83.1492105,117.804668 L83.2272111,116.086126 L84.7120085,115.648066 L84.1283967,123.048749 L82.5154555,123.524718 L78.0708134,117.603891 Z" id="Fill-22"></path>
                                <polygon id="Fill-24" points="69.2543763 124.61032 68.81423 118.862189 70.2405269 118.75127 70.6792803 124.497997 72.9301552 124.323896 73.0206916 125.492056 67.1010022 125.95258 67.0118587 124.784421"></polygon>
                                <polygon id="Fill-26" points="55.6507908 118.241464 55.2663592 121.104297 58.3710622 121.528317 58.7554938 118.665484 60.1720406 118.857837 59.249962 125.729198 57.8334151 125.535441 58.2067038 122.755446 55.1006079 122.33283 54.7287122 125.111421 53.3038081 124.917664 54.2272796 118.046303"></polygon>
                                <path d="M41.7397994,117.868552 C41.2341883,119.233277 41.5921554,120.338254 42.6549137,120.738405 C43.6647431,121.118899 44.710787,120.533416 45.2108267,119.184135 C45.7401165,117.757633 45.2456484,116.708817 44.2915337,116.349383 C43.1967394,115.936596 42.2426248,116.512251 41.7397994,117.868552 M40.2842522,117.319573 C41.0294367,115.308991 42.8011649,114.45674 44.6843225,115.168587 C46.5243013,115.860778 47.3544506,117.683219 46.6050876,119.702225 C45.8807962,121.656646 44.1996044,122.632452 42.1813386,121.872868 C40.2173946,121.13294 39.6017469,119.164479 40.2842522,117.319573" id="Fill-28"></path>
                                <path d="M31.7924927,108.505024 C31.7924927,108.505024 31.6838489,113.667671 31.6768846,113.845984 C31.6754917,114.015872 31.6337057,114.462356 31.6211699,114.605568 L31.6281342,114.60978 C31.7618496,114.375306 32.0292802,113.948478 32.2549249,113.603085 L34.438942,110.261475 L35.5629866,111.007019 L31.7799568,116.798675 L30.4748394,115.932384 C30.4748394,115.932384 30.5946261,110.907332 30.5974118,110.748676 C30.6029833,110.570363 30.6405907,110.101415 30.6614838,109.973647 L30.648948,109.965223 C30.54309,110.157576 30.2380519,110.640565 30.1043365,110.844151 L27.9049978,114.226478 L26.7725961,113.476722 L30.5570187,107.685066 L31.7924927,108.505024 Z" id="Fill-30"></path>
                                <polygon id="Fill-32" points="5.15249763 82.8423017 10.4885753 80.7699419 11.0025436 82.1150101 5.66785882 84.1873699 6.47850805 86.3102751 5.39624954 86.7314864 3.26098276 81.1490321 4.34463414 80.7278208"></polygon>
                                <path d="M4.0304031,71.591466 L3.79918699,70.1340748 C3.65293584,69.211622 3.27825433,68.878865 2.6333564,68.9827638 C2.00656577,69.0838545 1.72102781,69.472773 1.87563617,70.4457712 L2.10685227,71.9017584 L4.0304031,71.591466 Z M7.35657209,68.1599977 L4.93019588,70.3783774 L5.09594718,71.4187694 L7.81203995,70.9807096 L8.03907745,72.4029999 L1.24327405,73.5009574 L0.744627279,70.362933 C0.477196607,68.6822997 1.19034507,67.6798167 2.32971116,67.4958878 C3.40361246,67.3217871 4.18779719,67.6812208 4.60983622,68.8943094 L7.06824839,66.3544051 L7.35657209,68.1599977 Z" id="Fill-34"></path>
                                <polygon id="Fill-36" points="0 59.8368616 0.0306430979 58.4061471 6.90444711 58.5605913 6.87241114 59.9913058"></polygon>
                                <path d="M2.38445088,47.6926367 C2.55020218,47.7600305 2.75634666,47.8793737 2.94020524,47.9860806 C2.97781268,48.0113533 5.14372256,49.2848155 5.14372256,49.2848155 L5.55461864,47.2279002 C5.55461864,47.2279002 3.05024182,47.6126065 3.00427718,47.6210308 C2.77863255,47.6434954 2.55020218,47.6743842 2.38723661,47.6757882 L2.38445088,47.6926367 Z M8.69275044,45.3914187 L8.38631946,46.9274361 L6.69259187,47.1675265 L6.16051626,49.8267741 L7.6341707,50.6930655 L7.32773972,52.2206586 L1.10161937,48.2654841 L1.43451484,46.6059114 L8.69275044,45.3914187 Z" id="Fill-38"></path>
                                <polygon id="Fill-40" points="6.64203076 34.2576798 11.8889648 36.5378372 11.3234604 37.8590368 6.07652632 35.5802834 5.18369787 37.6680876 4.11815379 37.2047552 6.46374364 31.7149674 7.53207347 32.1782998"></polygon>
                                <polygon id="Fill-42" points="18.5684638 25.0971756 16.232624 23.4207545 14.4135382 25.9943558 16.7479852 27.6707769 15.9192287 28.8445525 10.3157203 24.8205802 11.1444768 23.6468046 13.4120661 25.2754884 15.2311518 22.7018871 12.9649554 21.0732033 13.7978906 19.8924075 19.4041846 23.9177839"></polygon>
                                <path d="M25.4089782,12.8543872 C24.4478992,11.7662579 23.3085331,11.5682886 22.4588836,12.3320852 C21.6538059,13.0551646 21.6788775,14.2640412 22.6315992,15.3409382 C23.6386429,16.4796128 24.7933305,16.5287542 25.5538365,15.8435837 C26.4271648,15.0587266 26.3672715,13.9369004 25.4089782,12.8543872 M26.5720231,11.8111872 C27.9913556,13.4160024 27.9147479,15.3956957 26.4104504,16.7477841 C24.9423674,18.0661755 22.9491732,17.9566606 21.5242691,16.3448252 C20.1439368,14.7849392 20.0715077,12.8263065 21.6830561,11.3787435 C23.2514255,9.97049361 25.2682985,10.3383515 26.5720231,11.8111872" id="Fill-44"></path>
                                <path d="M38.2385469,8.34195017 C38.2385469,8.34195017 33.749333,5.84557096 33.5961175,5.75711658 C33.4470807,5.67708643 33.073792,5.43137981 32.9540054,5.35415773 L32.947041,5.35836985 C33.0918993,5.58582397 33.3412227,6.0252878 33.5404028,6.38612551 L35.4639536,9.89060386 L34.2855872,10.5476935 L30.9538468,4.47663411 L32.3202504,3.71283755 C32.3202504,3.71283755 36.6827132,6.15445928 36.8206072,6.23308539 C36.9738227,6.32013574 37.3707901,6.5714585 37.4710766,6.65008462 L37.4863981,6.64166039 C37.3666115,6.45773144 37.0824664,5.96070206 36.9654654,5.74588428 L35.0140573,2.20911307 L36.199388,1.54781127 L39.5325213,7.62027474 L38.2385469,8.34195017 Z" id="Fill-46"></path>
                            </g>
                        </g>
                        <g id="编组" transform="translate(58.000000, 6.500103) rotate(-5.000000) translate(-58.000000, -6.500103) translate(52.000000, 0.500103)">
                            <rect id="矩形" x="0" y="0" width="12" height="12"></rect>
                            <path d="M5.4599,1.43385 C5.701,1.019935 6.299,1.019935 6.54005,1.43385 L7.93755,3.833215 L10.65135,4.420875 C11.1195,4.52225 11.3043,5.09095 10.98515,5.44815 L9.13505,7.5187 L9.41475,10.28125 C9.463,10.7578 8.97925,11.1093 8.5409,10.91615 L6,9.79645 L3.45908,10.91615 C3.020745,11.1093 2.536975,10.7578 2.58523,10.28125 L2.864935,7.5187 L1.01486,5.44815 C0.6957,5.09095 0.880485,4.52225 1.34864,4.420875 L4.06242,3.833215 L5.4599,1.43385 Z" id="路径" fill="#FFFFFF" fill-rule="nonzero"></path>
                        </g>
                        <g id="编组备份-2" transform="translate(123.000000, 92.500103) rotate(-37.000000) translate(-123.000000, -92.500103) translate(117.000000, 86.500103)">
                            <rect id="矩形" x="0" y="0" width="12" height="12"></rect>
                            <path d="M5.4599,1.43385 C5.701,1.019935 6.299,1.019935 6.54005,1.43385 L7.93755,3.833215 L10.65135,4.420875 C11.1195,4.52225 11.3043,5.09095 10.98515,5.44815 L9.13505,7.5187 L9.41475,10.28125 C9.463,10.7578 8.97925,11.1093 8.5409,10.91615 L6,9.79645 L3.45908,10.91615 C3.020745,11.1093 2.536975,10.7578 2.58523,10.28125 L2.864935,7.5187 L1.01486,5.44815 C0.6957,5.09095 0.880485,4.52225 1.34864,4.420875 L4.06242,3.833215 L5.4599,1.43385 Z" id="路径" fill="#FFFFFF" fill-rule="nonzero"></path>
                        </g>
                        <g id="编组备份" transform="translate(17.000000, 106.500103) rotate(16.000000) translate(-17.000000, -106.500103) translate(11.000000, 100.500103)">
                            <rect id="矩形" x="0" y="0" width="12" height="12"></rect>
                            <path d="M5.4599,1.43385 C5.701,1.019935 6.299,1.019935 6.54005,1.43385 L7.93755,3.833215 L10.65135,4.420875 C11.1195,4.52225 11.3043,5.09095 10.98515,5.44815 L9.13505,7.5187 L9.41475,10.28125 C9.463,10.7578 8.97925,11.1093 8.5409,10.91615 L6,9.79645 L3.45908,10.91615 C3.020745,11.1093 2.536975,10.7578 2.58523,10.28125 L2.864935,7.5187 L1.01486,5.44815 C0.6957,5.09095 0.880485,4.52225 1.34864,4.420875 L4.06242,3.833215 L5.4599,1.43385 Z" id="路径" fill="#FFFFFF" fill-rule="nonzero"></path>
                        </g>
                    </g>
                </g>
            </g>
        </g>
    </g>
</svg>