<?xml version="1.0" encoding="UTF-8"?>
<svg width="36px" height="36px" viewBox="0 0 36 36" version="1.1" xmlns="http://www.w3.org/2000/svg" xmlns:xlink="http://www.w3.org/1999/xlink">
    <title>编组 16</title>
    <g id="首页" stroke="none" stroke-width="1" fill="none" fill-rule="evenodd">
        <g id="画板" transform="translate(-2761.000000, -847.000000)">
            <g id="编组-16" transform="translate(2761.000000, 847.000000)">
                <rect id="矩形备份-2" x="0" y="0" width="36" height="36"></rect>
                <path d="M30.24,10.5892189 C29.339762,10.9688166 28.3600913,11.2420118 27.3510011,11.3484142 C28.3924528,10.7416331 29.1838385,9.78401183 29.5574667,8.64521893 C28.5954477,9.20598817 27.5069246,9.61721893 26.3742723,9.83002367 C25.4563826,8.87240237 24.153097,8.28 22.7085975,8.28 C19.9284509,8.28 17.6925658,10.4828166 17.6925658,13.1860118 C17.6925658,13.5656095 17.7396371,13.9452071 17.8161279,14.310426 C13.6532628,14.0976213 9.94051676,12.1536213 7.47221728,9.17723077 C7.03680808,9.90766864 6.78968393,10.7416331 6.78968393,11.6532426 C6.78968393,13.3556805 7.67521211,14.8568166 9.02556904,15.7396686 C8.2018219,15.7080355 7.42514602,15.4808521 6.75732244,15.1156331 L6.75732244,15.1760237 C6.75732244,17.5600118 8.48130754,19.535645 10.7789737,19.9900118 C10.3582742,20.0964142 9.90815527,20.1568047 9.45803629,20.1568047 C9.13147939,20.1568047 8.82257421,20.1251716 8.51072708,20.0820355 C9.14618916,22.0260355 10.9966783,23.4380237 13.2002019,23.4840355 C11.4762168,24.804 9.3168225,25.5804497 6.97208509,25.5804497 C6.55138565,25.5804497 6.16304771,25.566071 5.76,25.5200592 C7.98411729,26.9147929 10.6230501,27.72 13.4649778,27.72 C22.6909458,27.72 27.739339,20.2488284 27.739339,13.7640355 C27.739339,13.5512308 27.739339,13.338426 27.7246293,13.1256213 C28.701358,12.4268166 29.5574667,11.5612189 30.24,10.5892189 Z" id="路径" fill="#FFFFFF"></path>
            </g>
        </g>
    </g>
</svg>