<?xml version="1.0" encoding="UTF-8"?>
<svg width="36px" height="36px" viewBox="0 0 36 36" version="1.1" xmlns="http://www.w3.org/2000/svg" xmlns:xlink="http://www.w3.org/1999/xlink">
    <title>编组 17</title>
    <g id="首页" stroke="none" stroke-width="1" fill="none" fill-rule="evenodd">
        <g id="画板" transform="translate(-2813.000000, -847.000000)">
            <g id="编组-17" transform="translate(2813.000000, 847.000000)">
                <rect id="矩形备份-4" x="0" y="0" width="36" height="36"></rect>
                <path d="M27.681,11.1152209 L29.52,9.38003273 L29.52,9 L23.151,9 L18.612,20.1476268 L13.449,9 L6.771,9 L6.771,9.38003273 L8.919,11.9312602 C9.129,12.1198036 9.237,12.3967267 9.21,12.6736498 L9.21,22.6988543 C9.276,23.0612111 9.159,23.4294599 8.901,23.691653 L6.48,26.5875614 L6.48,26.9617021 L13.338,26.9617021 L13.338,26.5816694 L10.92,23.694599 C10.659,23.4324059 10.533,23.0671031 10.587,22.7018003 L10.587,14.0288052 L16.608,26.9675941 L17.307,26.9675941 L22.485,14.0288052 L22.485,24.3368249 C22.485,24.607856 22.485,24.6638298 22.305,24.8435352 L20.442,26.6199673 L20.442,27 L29.478,27 L29.478,26.6199673 L27.681,24.8847791 C27.525,24.7669394 27.444,24.5695581 27.477,24.3780687 L27.477,11.6219313 C27.444,11.4304419 27.525,11.2330606 27.681,11.1152209 L27.681,11.1152209 Z" id="路径" fill="#FFFFFF" fill-rule="nonzero"></path>
            </g>
        </g>
    </g>
</svg>