<?xml version="1.0" encoding="UTF-8"?>
<svg width="36px" height="36px" viewBox="0 0 36 36" version="1.1" xmlns="http://www.w3.org/2000/svg" xmlns:xlink="http://www.w3.org/1999/xlink">
    <title>编组 12</title>
    <g id="首页" stroke="none" stroke-width="1" fill="none" fill-rule="evenodd">
        <g id="画板" transform="translate(-2709.000000, -847.000000)">
            <g id="编组-12" transform="translate(2709.000000, 847.000000)">
                <rect id="矩形" x="0" y="0" width="36" height="36"></rect>
                <path d="M26.8484073,10.9953723 C24.7297745,9.30071259 21.37824,9.0140262 21.2358109,9.00185033 C21.0121527,8.98303307 20.7996218,9.10921936 20.7083782,9.31288846 C20.7017018,9.32617123 20.6282618,9.49331272 20.5470327,9.75343358 C21.9479563,9.9880958 23.6693455,10.4618478 25.2271637,11.4237416 C25.4764145,11.5776003 25.5531927,11.904135 25.3985237,12.1531869 C25.2983782,12.3147939 25.12368,12.4033456 24.9456437,12.4033456 C24.8499491,12.4033456 24.7531418,12.377887 24.6652363,12.323649 C21.9880145,10.6721583 18.6431563,10.589141 18,10.589141 C17.3568437,10.589141 14.0108727,10.6721583 11.3358764,12.323649 C11.0855127,12.4786147 10.7583709,12.4011319 10.6025891,12.1531869 C10.4468073,11.904135 10.5246982,11.5787072 10.7739491,11.4237416 C12.3317673,10.4629547 14.0520437,9.9880958 15.45408,9.75343358 C15.3717382,9.49220582 15.2982982,9.32617123 15.2927345,9.31288846 C15.2003782,9.10921936 14.98896,8.98081928 14.7641891,9.00295722 C14.6228727,9.0140262 11.2713382,9.30071259 9.12377455,11.0197241 C8.00214545,12.0502454 5.76,18.0806218 5.76,23.294108 C5.76,23.3859804 5.78448,23.4767459 5.83010182,23.5564426 C7.37790545,26.2605926 11.5995927,26.9690069 12.5621018,27 C12.5676655,27 12.5732291,27 12.5787927,27 C12.74904,27 12.9092727,26.9191965 13.0094182,26.7819412 L13.9830545,25.4514508 C11.3581309,24.7762433 10.0172945,23.6306047 9.93940363,23.5630839 C9.71908363,23.3693769 9.69794182,23.0350939 9.89266909,22.8159283 C10.0873964,22.5967627 10.4223273,22.5757316 10.6426473,22.7683317 C10.6749164,22.797111 13.1440582,24.8813986 18,24.8813986 C22.8648437,24.8813986 25.3339855,22.7882558 25.3584655,22.7672248 C25.5787855,22.5768385 25.9148291,22.5967627 26.1084437,22.8170352 C26.3020582,23.0362009 26.2809163,23.3693769 26.0617091,23.5619771 C25.9838182,23.6306047 24.6429818,24.7751365 22.0180582,25.4503438 L22.9916945,26.7808344 C23.09184,26.9180896 23.2520727,26.9988931 23.42232,26.9988931 C23.4278837,26.9988931 23.4334473,26.9988931 23.4390109,26.9988931 C24.40152,26.9690069 28.6232073,26.2605926 30.1710109,23.5553357 C30.21552,23.4756391 30.24,23.3859804 30.24,23.294108 C30.24,18.0806218 27.9978545,12.0502454 26.8484073,10.9953723 Z M14.5405309,21.1766134 C13.5123709,21.1766134 12.6778255,20.2280024 12.6778255,19.0591189 C12.6778255,17.8902354 13.5112582,16.9416245 14.5405309,16.9416245 C15.5698037,16.9416245 16.4032363,17.8902354 16.4032363,19.0591189 C16.4032363,20.2280024 15.5698037,21.1766134 14.5405309,21.1766134 Z M21.4594691,21.1766134 C20.4313091,21.1766134 19.5967637,20.2280024 19.5967637,19.0591189 C19.5967637,17.8902354 20.4301963,16.9416245 21.4594691,16.9416245 C22.4876291,16.9416245 23.3221745,17.8902354 23.3221745,19.0591189 C23.3221745,20.2280024 22.4876291,21.1766134 21.4594691,21.1766134 Z" id="形状" fill="#FFFFFF"></path>
            </g>
        </g>
    </g>
</svg>