<?xml version="1.0" encoding="UTF-8"?>
<svg width="1920px" height="816px" viewBox="0 0 1920 816" version="1.1" xmlns="http://www.w3.org/2000/svg" xmlns:xlink="http://www.w3.org/1999/xlink">
    <title>形状结合备份</title>
    <g id="首页" stroke="none" stroke-width="1" fill="none" fill-rule="evenodd">
        <g id="画板" transform="translate(-112.000000, -912.000000)" fill="#111112">
            <path d="M112,912 L2032,912 L2032,1728 L112,1728 L112,912 Z M1103.72711,1002 L1223.547,1026.10094 L1223.547,1047.56491 L1234.19758,1047.56491 L1244.90961,1015.67195 C1305.81443,1006.55732 1375.64176,1031.62207 1454.39162,1090.8662 C1513.49595,1135.33085 1521.96692,1174.98592 1559.54123,1189.46051 L1575.04045,1286.2706 L1500.34496,1296.12129 C1479.87421,1372.86625 1439.11531,1415.69049 1378.06825,1424.59402 C1286.49766,1437.9493 1258.31377,1392.30516 1190.69368,1401.51821 L1143.96476,1457.36838 C1134.08474,1469.17693 1119.47969,1476 1104.08304,1476 L1036.67899,1476 C1021.47724,1476 1007.04717,1469.34857 997.174729,1457.8144 L996.797275,1457.36838 L950.068361,1401.51821 C882.448272,1392.30516 854.264376,1437.9493 762.693789,1424.59402 C702.257202,1415.77953 661.705034,1373.71935 641.037284,1298.41346 L640.417075,1296.12129 L565.721583,1286.2706 L581.220807,1189.46051 C618.795121,1174.98592 627.266084,1135.33085 686.370416,1090.8662 C764.332774,1032.21451 833.55017,1007.06203 894.022605,1015.40876 L895.852426,1015.67195 L906.564456,1047.56491 L917.215033,1047.56491 L917.215033,1026.10094 L1037.03493,1002 L1070.381,1012.388 L1103.72711,1002 Z M549.040958,1308.50347 L616.890783,1317.45039 C618.290281,1337.08467 626.299637,1358.23536 640.918849,1380.90245 C655.370025,1403.309 676.448848,1421.39606 704.155318,1435.16363 L705.124511,1435.64214 L593.565466,1435.64214 L540,1380.90245 L549.040958,1308.50347 Z M1592.95904,1308.50347 L1602,1380.90245 L1548.43453,1435.64214 L1436.87549,1435.64214 C1465.06005,1421.81611 1486.46194,1403.56954 1501.08115,1380.90245 C1515.70036,1358.23536 1523.70972,1337.08467 1525.10922,1317.45039 L1592.95904,1308.50347 Z" id="形状结合备份"></path>
        </g>
    </g>
</svg>