<?xml version="1.0" encoding="UTF-8"?>
<svg width="78px" height="64px" viewBox="0 0 78 64" version="1.1" xmlns="http://www.w3.org/2000/svg" xmlns:xlink="http://www.w3.org/1999/xlink">
    <title>编组 33</title>
    <g id="首页" stroke="none" stroke-width="1" fill="none" fill-rule="evenodd">
        <g id="1920" transform="translate(-194.000000, -896.000000)">
            <g id="编组-33" transform="translate(194.000000, 896.000000)">
                <path d="M20.2706011,0 L68.6529326,0 C73.0712106,7.03681384e-15 76.6529326,3.581722 76.6529326,8 C76.6529326,8.41353164 76.6208686,8.82644081 76.5570289,9.23501504 L69.5855433,53.8525226 C68.6728396,59.6938265 63.6415779,64 57.7293989,64 L9.34706737,64 C4.92878937,64 1.34706737,60.418278 1.34706737,56 C1.34706737,55.5864684 1.37913138,55.1735592 1.4429711,54.764985 L8.41445665,10.1474774 C9.32716039,4.30617348 14.3584221,4.63876333e-15 20.2706011,0 Z" id="矩形备份-9" fill-opacity="0.8" fill="#111112"></path>
                <g id="编组-12" transform="translate(15.000000, 8.000000)">
                    <rect id="矩形" x="0" y="0" width="48" height="48"></rect>
                    <path d="M35.7978764,14.6604964 C32.9730327,12.4009501 28.50432,12.0187016 28.3144145,12.0024671 C28.0162036,11.9773774 27.7328291,12.1456258 27.6111709,12.4171846 C27.6022691,12.434895 27.5043491,12.6577503 27.3960436,13.0045781 C29.2639418,13.3174611 31.5591273,13.9491304 33.6362182,15.2316554 C33.9685527,15.4368004 34.0709236,15.87218 33.8646982,16.2042492 C33.7311709,16.4197252 33.49824,16.5377942 33.2608582,16.5377942 C33.1332655,16.5377942 33.0041891,16.5038493 32.8869818,16.4315321 C29.3173527,14.2295444 24.8575418,14.1188547 24,14.1188547 C23.1424582,14.1188547 18.6811636,14.2295444 15.1145018,16.4315321 C14.7806836,16.6381529 14.3444946,16.5348425 14.1367854,16.2042492 C13.9290764,15.87218 14.0329309,15.4382762 14.3652654,15.2316554 C16.4423564,13.9506063 18.7360582,13.3174611 20.60544,13.0045781 C20.4956509,12.6562744 20.3977309,12.434895 20.3903127,12.4171846 C20.2671709,12.1456258 19.98528,11.9744257 19.6855855,12.003943 C19.4971636,12.0187016 15.0284509,12.4009501 12.1650327,14.6929654 C10.6695273,16.0669939 7.68,24.1074957 7.68,31.0588106 C7.68,31.1813072 7.71264,31.3023279 7.77346909,31.4085901 C9.83720727,35.0141235 15.4661236,35.9586758 16.7494691,36 C16.7568873,36 16.7643054,36 16.7717236,36 C16.99872,36 17.2123636,35.892262 17.3458909,35.7092549 L18.6440727,33.9352677 C15.1441746,33.0349911 13.3563927,31.5074729 13.2525382,31.4174452 C12.9587782,31.1591692 12.9305891,30.7134586 13.1902254,30.4212377 C13.4498618,30.1290169 13.8964364,30.1009754 14.1901964,30.3577756 C14.2332218,30.396148 17.5254109,33.1751981 24,33.1751981 C30.4864582,33.1751981 33.7786473,30.3843411 33.8112873,30.3562997 C34.1050473,30.1024513 34.5531055,30.1290169 34.8112582,30.4227136 C35.0694109,30.7149345 35.0412218,31.1591692 34.7489455,31.4159695 C34.6450909,31.5074729 32.8573091,33.0335153 29.3574109,33.9337918 L30.6555927,35.7077792 C30.78912,35.8907861 31.0027636,35.9985241 31.22976,35.9985241 C31.2371782,35.9985241 31.2445964,35.9985241 31.2520145,35.9985241 C32.53536,35.9586758 38.1642764,35.0141235 40.2280145,31.4071142 C40.28736,31.3008521 40.32,31.1813072 40.32,31.0588106 C40.32,24.1074957 37.3304727,16.0669939 35.7978764,14.6604964 Z M19.3873745,28.2354845 C18.0164946,28.2354845 16.9037673,26.9706699 16.9037673,25.4121586 C16.9037673,23.8536472 18.0150109,22.5888326 19.3873745,22.5888326 C20.7597382,22.5888326 21.8709818,23.8536472 21.8709818,25.4121586 C21.8709818,26.9706699 20.7597382,28.2354845 19.3873745,28.2354845 Z M28.6126255,28.2354845 C27.2417455,28.2354845 26.1290182,26.9706699 26.1290182,25.4121586 C26.1290182,23.8536472 27.2402618,22.5888326 28.6126255,22.5888326 C29.9835055,22.5888326 31.0962327,23.8536472 31.0962327,25.4121586 C31.0962327,26.9706699 29.9835055,28.2354845 28.6126255,28.2354845 Z" id="形状" fill="#FFFFFF"></path>
                </g>
            </g>
        </g>
    </g>
</svg>