<?xml version="1.0" encoding="UTF-8"?>
<svg width="78px" height="64px" viewBox="0 0 78 64" version="1.1" xmlns="http://www.w3.org/2000/svg" xmlns:xlink="http://www.w3.org/1999/xlink">
    <title>编组 41</title>
    <g id="首页" stroke="none" stroke-width="1" fill="none" fill-rule="evenodd">
        <g id="1920" transform="translate(-382.000000, -896.000000)">
            <g id="编组-41" transform="translate(382.000000, 896.000000)">
                <path d="M20.2706011,0 L68.6529326,0 C73.0712106,7.03681384e-15 76.6529326,3.581722 76.6529326,8 C76.6529326,8.41353164 76.6208686,8.82644081 76.5570289,9.23501504 L69.5855433,53.8525226 C68.6728396,59.6938265 63.6415779,64 57.7293989,64 L9.34706737,64 C4.92878937,64 1.34706737,60.418278 1.34706737,56 C1.34706737,55.5864684 1.37913138,55.1735592 1.4429711,54.764985 L8.41445665,10.1474774 C9.32716039,4.30617348 14.3584221,4.63876333e-15 20.2706011,0 Z" id="矩形备份-11" fill-opacity="0.8" fill="#111112"></path>
                <g id="编组-17" transform="translate(15.000000, 8.000000)">
                    <rect id="矩形备份-4" x="0" y="0" width="48" height="48"></rect>
                    <path d="M36.908,14.8202946 L39.36,12.5067103 L39.36,12 L30.868,12 L24.816,26.8635025 L17.932,12 L9.028,12 L9.028,12.5067103 L11.892,15.908347 C12.172,16.1597381 12.316,16.5289689 12.28,16.8981997 L12.28,30.2651391 C12.368,30.7482815 12.212,31.2392799 11.868,31.5888707 L8.64,35.4500818 L8.64,35.9489362 L17.784,35.9489362 L17.784,35.4422259 L14.56,31.5927987 C14.212,31.2432079 14.044,30.7561375 14.116,30.2690671 L14.116,18.7050736 L22.144,35.9567921 L23.076,35.9567921 L29.98,18.7050736 L29.98,32.4490998 C29.98,32.8104746 29.98,32.8851064 29.74,33.1247136 L27.256,35.4932897 L27.256,36 L39.304,36 L39.304,35.4932897 L36.908,33.1797054 C36.7,33.0225859 36.592,32.7594108 36.636,32.5040917 L36.636,15.4959083 C36.592,15.2405892 36.7,14.9774141 36.908,14.8202946 L36.908,14.8202946 Z" id="路径" fill="#FFFFFF" fill-rule="nonzero"></path>
                </g>
            </g>
        </g>
    </g>
</svg>