<?xml version="1.0" encoding="UTF-8"?>
<svg width="78px" height="64px" viewBox="0 0 78 64" version="1.1" xmlns="http://www.w3.org/2000/svg" xmlns:xlink="http://www.w3.org/1999/xlink">
    <title>编组 40</title>
    <g id="首页" stroke="none" stroke-width="1" fill="none" fill-rule="evenodd">
        <g id="1920" transform="translate(-288.000000, -896.000000)">
            <g id="编组-40" transform="translate(288.000000, 896.000000)">
                <path d="M20.2706011,0 L68.6529326,0 C73.0712106,7.03681384e-15 76.6529326,3.581722 76.6529326,8 C76.6529326,8.41353164 76.6208686,8.82644081 76.5570289,9.23501504 L69.5855433,53.8525226 C68.6728396,59.6938265 63.6415779,64 57.7293989,64 L9.34706737,64 C4.92878937,64 1.34706737,60.418278 1.34706737,56 C1.34706737,55.5864684 1.37913138,55.1735592 1.4429711,54.764985 L8.41445665,10.1474774 C9.32716039,4.30617348 14.3584221,4.63876333e-15 20.2706011,0 Z" id="矩形备份-10" fill-opacity="0.8" fill="#111112"></path>
                <g id="编组-16" transform="translate(15.000000, 8.000000)">
                    <rect id="矩形备份-2" x="0" y="0" width="48" height="48"></rect>
                    <path d="M40.32,14.1189586 C39.1196827,14.6250888 37.8134551,14.9893491 36.4680014,15.1312189 C37.8566038,14.3221775 38.9117846,13.0453491 39.4099555,11.5269586 C38.1272636,12.2746509 36.6758995,12.8229586 35.1656964,13.1066982 C33.9418435,11.8298698 32.2041293,11.04 30.27813,11.04 C26.5712679,11.04 23.5900877,13.9770888 23.5900877,17.5813491 C23.5900877,18.0874793 23.6528494,18.5936095 23.7548372,19.080568 C18.2043504,18.7968284 13.2540224,16.2048284 9.96295638,12.2363077 C9.38241077,13.2102249 9.05291191,14.3221775 9.05291191,15.5376568 C9.05291191,17.807574 10.2336162,19.8090888 12.0340921,20.9862249 C10.9357625,20.9440473 9.90019469,20.6411361 9.00976325,20.1541775 L9.00976325,20.2346982 C9.00976325,23.4133491 11.30841,26.0475266 14.3719649,26.6533491 C13.8110323,26.7952189 13.2108737,26.8757396 12.6107151,26.8757396 C12.1753059,26.8757396 11.7634323,26.8335621 11.3476361,26.7760473 C12.1949189,29.3680473 14.6622377,31.2506982 17.6002692,31.3120473 C15.3016224,33.072 12.42243,34.1072663 9.29611345,34.1072663 C8.73518087,34.1072663 8.21739695,34.0880947 7.68,34.0267456 C10.6454897,35.8863905 14.1640668,36.96 17.9533037,36.96 C30.2545944,36.96 36.9857854,26.9984379 36.9857854,18.3520473 C36.9857854,18.0683077 36.9857854,17.784568 36.9661723,17.5008284 C38.2684773,16.5690888 39.4099555,15.4149586 40.32,14.1189586 Z" id="路径" fill="#FFFFFF"></path>
                </g>
            </g>
        </g>
    </g>
</svg>