<?xml version="1.0" encoding="UTF-8"?>
<svg width="78px" height="64px" viewBox="0 0 78 64" version="1.1" xmlns="http://www.w3.org/2000/svg" xmlns:xlink="http://www.w3.org/1999/xlink">
    <title>编组 31</title>
    <g id="首页" stroke="none" stroke-width="1" fill="none" fill-rule="evenodd">
        <g id="1920" transform="translate(-100.000000, -896.000000)">
            <g id="编组-31" transform="translate(100.000000, 896.000000)">
                <path d="M20.2706011,0 L68.6529326,0 C73.0712106,7.03681384e-15 76.6529326,3.581722 76.6529326,8 C76.6529326,8.41353164 76.6208686,8.82644081 76.5570289,9.23501504 L69.5855433,53.8525226 C68.6728396,59.6938265 63.6415779,64 57.7293989,64 L9.34706737,64 C4.92878937,64 1.34706737,60.418278 1.34706737,56 C1.34706737,55.5864684 1.37913138,55.1735592 1.4429711,54.764985 L8.41445665,10.1474774 C9.32716039,4.30617348 14.3584221,4.63876333e-15 20.2706011,0 Z" id="矩形" fill-opacity="0.8" fill="#111112"></path>
                <g id="编组-10" transform="translate(15.000000, 8.000000)">
                    <g id="编组-7">
                        <rect id="矩形" x="0" y="0" width="48" height="48"></rect>
                    </g>
                    <path d="M37.3447688,13.7803856 L32.6900367,34.9752727 C32.3541282,36.4659021 31.4423765,36.8385594 30.1467295,36.1398269 L23.0926509,31.1555348 L19.685579,34.3231223 C19.3016835,34.6957796 19.013762,34.9752727 18.2459711,34.9752727 L18.7738273,27.9879473 L31.8742589,16.5287336 C32.450102,16.0163298 31.7302981,15.7834189 31.0104942,16.2492406 L14.7909122,26.1246605 L7.83280756,24.0284629 C6.29722584,23.5626412 6.29722584,22.5378335 8.16871607,21.8391009 L35.3773047,11.6376058 C36.6729518,11.2183663 37.7766511,11.9170989 37.3447688,13.7803856 Z" id="路径" fill="#FFFFFF" fill-rule="nonzero"></path>
                </g>
            </g>
        </g>
    </g>
</svg>