<?xml version="1.0" encoding="UTF-8"?>
<svg width="17px" height="17px" viewBox="0 0 17 17" version="1.1" xmlns="http://www.w3.org/2000/svg" xmlns:xlink="http://www.w3.org/1999/xlink">
    <title>椭圆形 + 椭圆形备份 2 蒙版</title>
    <defs>
        <rect id="path-1" x="0" y="0" width="17" height="17"></rect>
    </defs>
    <g id="首页" stroke="none" stroke-width="1" fill="none" fill-rule="evenodd">
        <g id="1920" transform="translate(-313.000000, -5234.000000)">
            <g id="编组-24" transform="translate(0.000000, 4320.000000)">
                <g id="编组-23" transform="translate(313.000000, 368.000000)">
                    <g id="椭圆形-+-椭圆形备份-2-蒙版" transform="translate(0.000000, 546.000000)">
                        <mask id="mask-2" fill="white">
                            <use xlink:href="#path-1"></use>
                        </mask>
                        <g id="蒙版"></g>
                        <path d="M16.9665062,9.25977108 L16.9576788,9.34972747 C16.9537125,9.38943827 16.9494674,9.42912649 16.9449435,9.46878895 C16.9404142,9.51272438 16.935032,9.55706206 16.9293099,9.60129312 C16.9232319,9.64397864 16.9174152,9.68624995 16.9112804,9.72848394 C16.8366197,10.248488 16.7141863,10.7535453 16.5490907,11.2388777 C16.5417885,11.2591119 16.5346628,11.2798433 16.5274548,11.3005524 C16.5076326,11.3584862 16.4869554,11.4157485 16.4656845,11.4727214 C16.4548968,11.5010046 16.4442973,11.5290015 16.4335448,11.5569531 C16.4126092,11.6117193 16.3908495,11.6664435 16.3685413,11.7208848 C16.357234,11.7484719 16.3456129,11.7764703 16.3338355,11.8044186 C16.3220766,11.8321427 16.3105105,11.8591288 16.2988091,11.8860424 C16.1272298,12.2818612 15.9238117,12.6675508 15.6888028,13.0389959 C15.6649318,13.0753202 15.641651,13.1115 15.6181046,13.1474903 C15.4954184,13.3363269 15.3640072,13.5207377 15.2243588,13.7008262 C15.2031306,13.7273933 15.1824206,13.7538049 15.1615583,13.7800903 C15.1335629,13.816055 15.1045999,13.851907 15.0753025,13.8875764 C14.9665051,14.0196133 14.8541666,14.1484611 14.7380972,14.273804 C14.6639829,14.3538839 14.5881046,14.4327107 14.5104076,14.5104076 L14.639717,14.3782725 C14.61598,14.4030586 14.5920944,14.4277011 14.5680616,14.4521988 L14.5104076,14.5104076 C14.4910052,14.5298101 14.4715324,14.5490991 14.4519898,14.5682746 C14.4388634,14.5811439 14.4254851,14.5941826 14.4120641,14.6071774 C14.3674363,14.6504301 14.3223679,14.6931527 14.2769511,14.7352874 C14.153038,14.8500383 14.0258116,14.9611512 13.8953318,15.0684521 L13.8784653,15.0827754 C13.8458033,15.1095274 13.8129885,15.1359994 13.7800243,15.1621914 C13.7660822,15.1726763 13.7520382,15.1837511 13.7379586,15.1947824 L13.7800243,15.1621914 C13.6418498,15.2719794 13.5010495,15.3768485 13.3578585,15.4767987 C13.3382314,15.4896416 13.3188485,15.5030441 13.2994075,15.5163679 C13.2496865,15.5513306 13.1990347,15.5852631 13.1481039,15.6185925 C13.1279513,15.6308878 13.1083566,15.6435927 13.0887064,15.6562189 C12.8560625,15.8066034 12.617259,15.9438565 12.373695,16.068583 C12.3490639,16.0806587 12.3243059,16.0932036 12.2994785,16.1056305 L12.25545,16.1279687 C12.1438288,16.1829354 12.0312521,16.2353036 11.9178102,16.2850733 C11.8805806,16.3012899 11.8429028,16.3175312 11.8050852,16.3335066 C11.7764703,16.3456129 11.7484719,16.357234 11.7204247,16.3686991 C11.6664435,16.3908495 11.6117193,16.4126092 11.5567192,16.4338134 C11.5290015,16.4442973 11.5010046,16.4548968 11.4729636,16.4653432 C11.4157485,16.4869554 11.3584862,16.5076326 11.3009419,16.5277085 C11.2798433,16.5346628 11.2591119,16.5417885 11.2383588,16.5488316 C10.8290431,16.6885042 10.405143,16.7974961 9.96986828,16.8733757 C9.94661749,16.8767367 9.92398622,16.8805936 9.90134263,16.8843585 C9.84412329,16.894527 9.78624384,16.9035182 9.72817437,16.9119223 C9.68624995,16.9174152 9.64397864,16.9232319 9.60167388,16.9287304 C9.55706206,16.935032 9.51272438,16.9404142 9.46828277,16.9454537 C9.42912649,16.9494674 9.38943827,16.9537125 9.34972747,16.9576788 C9.31979746,16.9610288 9.28980672,16.9638456 9.25977108,16.9665062 L9.16537249,16.9740775 C9.14639315,16.9755588 9.12740979,16.9769766 9.10842274,16.9783309 C9.04459851,16.983077 8.98017825,16.9869087 8.91556879,16.9900191 C8.9037696,16.9904721 8.89209707,16.9910158 8.88042368,16.9915355 C8.80041717,16.9951639 8.72000152,16.9975848 8.63931266,16.9988814 C8.63552227,16.9989271 8.63185714,16.9989844 8.62819199,16.9990393 L8.63931266,16.9988814 C8.59296431,16.9996262 8.54652581,17 8.5,17 L8.37280556,16.9990542 C8.36880788,16.9989948 8.36481024,16.9989325 8.36081264,16.9988674 L8.5,17 C8.3724764,17 8.2456087,16.9971917 8.11945538,16.9916337 C8.10790293,16.9910158 8.0962304,16.9904721 8.08455881,16.9899045 C8.01982175,16.9869087 7.95540149,16.983077 7.8911783,16.9785317 C7.87259021,16.9769766 7.85360685,16.9755588 7.83462751,16.9740775 L7.74022892,16.9665062 C7.71019328,16.9638456 7.68020254,16.9610288 7.65025751,16.9580566 C7.61056173,16.9537125 7.57087351,16.9494674 7.53121105,16.9449435 C7.48727562,16.9404142 7.44293794,16.935032 7.39870688,16.9293099 C7.35602136,16.9232319 7.31375005,16.9174152 7.27151606,16.9112804 C7.21375616,16.9035182 7.15587671,16.894527 7.09819351,16.884955 C7.07601378,16.8805936 7.05338251,16.8767367 7.03076414,16.8727879 C6.59485699,16.7974961 6.17095692,16.6885042 5.76112228,16.5490907 C5.74088806,16.5417885 5.72015668,16.5346628 5.69944763,16.5274548 C5.64151382,16.5076326 5.58425147,16.4869554 5.52727858,16.4656845 C5.49899538,16.4548968 5.47099845,16.4442973 5.44304689,16.4335448 C5.38828065,16.4126092 5.33355652,16.3908495 5.27911525,16.3685413 C5.25152807,16.357234 5.22352966,16.3456129 5.19558144,16.3338355 C5.15709725,16.3175312 5.11941939,16.3012899 5.08188358,16.2847851 C4.9687479,16.2353036 4.85617119,16.1829354 4.74455001,16.1279687 L4.70052146,16.1056305 C4.6756941,16.0932036 4.65093607,16.0806587 4.62624809,16.0679965 C4.38274096,15.9438565 4.14393746,15.8066034 3.91085076,15.6568236 C3.89164341,15.6435927 3.87204866,15.6308878 3.85250974,15.6181046 C3.80096527,15.5852631 3.75031353,15.5513306 3.69995102,15.516795 C3.68115147,15.5030441 3.66176864,15.4896416 3.64244444,15.4761608 C3.51378813,15.3872054 3.3873556,15.2936599 3.26301334,15.196162 C3.24863054,15.1842784 3.23425133,15.172941 3.21990974,15.1615583 L3.26301334,15.196162 C3.21554602,15.1589424 3.16838331,15.1211469 3.12153465,15.0827754 L3.10466816,15.0684521 C2.97418844,14.9611512 2.84696203,14.8500383 2.72315923,14.7352838 C2.64416193,14.6621013 2.5663261,14.5871414 2.48959236,14.5104076 L2.58793586,14.6071774 C2.57451485,14.5941826 2.56113656,14.5811439 2.5478012,14.5680616 L2.48959236,14.5104076 C0.951394907,12.9722102 0,10.8472102 0,8.5 C0,3.80557963 3.80557963,0 8.5,0 C10.8472102,0 12.9722102,0.951394907 14.5104076,2.48959236 C14.5298101,2.50899477 14.5490991,2.52846764 14.5682746,2.54801016 C14.5920944,2.57229886 14.61598,2.59694143 14.639717,2.62172746 C14.6729561,2.656378 14.705673,2.69109615 14.7380426,2.72602005 C14.9018512,2.90303336 15.058179,3.0868467 15.206585,3.27714034 L15.0794559,3.11748432 C15.2739387,3.35463587 15.4536509,3.59984793 15.6185925,3.85189615 C15.6308878,3.87204866 15.6435927,3.89164341 15.6562189,3.91129356 C15.8989845,4.28770062 16.1084011,4.67949406 16.2850733,5.0821898 C16.3012899,5.11941939 16.3175312,5.15709725 16.3335066,5.19491483 C16.3456129,5.22352966 16.357234,5.25152807 16.3686991,5.27957534 C16.3908495,5.33355652 16.4126092,5.38828065 16.4338134,5.44328079 C16.4442973,5.47099845 16.4548968,5.49899538 16.4653432,5.52703639 C16.4869554,5.58425147 16.5076326,5.64151382 16.5277085,5.6990581 C16.532121,5.71285392 16.5367527,5.72626957 16.5413498,5.73969443 L16.5277085,5.6990581 C16.7036443,6.20334971 16.8334042,6.72929414 16.9119223,7.27182563 C16.9174152,7.31375005 16.9232319,7.35602136 16.9287304,7.39832612 C16.935032,7.44293794 16.9404142,7.48727562 16.9454537,7.53171723 C16.9494674,7.57087351 16.9537125,7.61056173 16.9576788,7.65027253 C16.9622459,7.69246422 16.9661264,7.73476175 16.9696958,7.77714781 C16.9726486,7.81550056 16.9756172,7.85353152 16.9783309,7.89157726 C16.9927633,8.0922674 17,8.29528859 17,8.5 C17,8.70471141 16.9927633,8.9077326 16.9785317,9.1088217 C16.9769766,9.12740979 16.9755588,9.14639315 16.9740775,9.16537249 L16.9665062,9.25977108 L16.9665062,9.25977108 Z M8.5,1 C4.35786438,1 1,4.35786438 1,8.5 C1,10.5710678 1.83946609,12.4460678 3.19669914,13.8033009 L13.8033009,3.19669914 C12.4460678,1.83946609 10.5710678,1 8.5,1 Z" id="形状结合" fill="#FFFFFF" fill-rule="nonzero" mask="url(#mask-2)"></path>
                    </g>
                </g>
            </g>
        </g>
    </g>
</svg>