<?xml version="1.0" encoding="UTF-8"?>
<svg width="243px" height="100px" viewBox="0 0 243 100" version="1.1" xmlns="http://www.w3.org/2000/svg" xmlns:xlink="http://www.w3.org/1999/xlink">
    <title>编组 25</title>
    <g id="首页" stroke="none" stroke-width="1" fill="none" fill-rule="evenodd">
        <g id="1920" transform="translate(-1362.000000, -4508.000000)">
            <g id="编组-24" transform="translate(0.000000, 4320.000000)">
                <g id="编组-25" transform="translate(1362.000000, 188.000000)">
                    <rect id="矩形" fill="#111112" x="0" y="0" width="243" height="100"></rect>
                    <g id="Quality-communities" transform="translate(0.000000, 16.736000)">
                        <path d="M70.408,13.28 L68.456,11.168 C67.976,11.3066667 67.448,11.376 66.872,11.376 C65.8373333,11.376 64.8853333,11.1333333 64.016,10.648 C63.1466667,10.1626667 62.4586667,9.48533333 61.952,8.616 C61.4453333,7.74666667 61.192,6.768 61.192,5.68 C61.192,4.592 61.4453333,3.616 61.952,2.752 C62.4586667,1.888 63.1466667,1.21333333 64.016,0.728 C64.8853333,0.242666667 65.8373333,0 66.872,0 C67.9173333,0 68.8746667,0.242666667 69.744,0.728 C70.6133333,1.21333333 71.2986667,1.888 71.8,2.752 C72.3013333,3.616 72.552,4.592 72.552,5.68 C72.552,6.704 72.3306667,7.62933333 71.888,8.456 C71.4453333,9.28266667 70.8346667,9.94666667 70.056,10.448 L72.728,13.28 L70.408,13.28 Z M63.064,5.68 C63.064,6.50133333 63.2266667,7.224 63.552,7.848 C63.8773333,8.472 64.328,8.952 64.904,9.288 C65.48,9.624 66.136,9.792 66.872,9.792 C67.608,9.792 68.264,9.624 68.84,9.288 C69.416,8.952 69.8666667,8.472 70.192,7.848 C70.5173333,7.224 70.68,6.50133333 70.68,5.68 C70.68,4.85866667 70.5173333,4.13866667 70.192,3.52 C69.8666667,2.90133333 69.416,2.42666667 68.84,2.096 C68.264,1.76533333 67.608,1.6 66.872,1.6 C66.136,1.6 65.48,1.76533333 64.904,2.096 C64.328,2.42666667 63.8773333,2.90133333 63.552,3.52 C63.2266667,4.13866667 63.064,4.85866667 63.064,5.68 Z M76.2,0.144 L76.2,7.232 C76.2,8.07466667 76.4213333,8.70933333 76.864,9.136 C77.3066667,9.56266667 77.9226667,9.776 78.712,9.776 C79.512,9.776 80.1333333,9.56266667 80.576,9.136 C81.0186667,8.70933333 81.24,8.07466667 81.24,7.232 L81.24,0.144 L83.064,0.144 L83.064,7.2 C83.064,8.10666667 82.8666667,8.87466667 82.472,9.504 C82.0773333,10.1333333 81.5493333,10.6026667 80.888,10.912 C80.2266667,11.2213333 79.496,11.376 78.696,11.376 C77.896,11.376 77.168,11.2213333 76.512,10.912 C75.856,10.6026667 75.336,10.1333333 74.952,9.504 C74.568,8.87466667 74.376,8.10666667 74.376,7.2 L74.376,0.144 L76.2,0.144 Z M92.136,8.992 L87.48,8.992 L86.68,11.264 L84.776,11.264 L88.76,0.128 L90.872,0.128 L94.856,11.264 L92.936,11.264 L92.136,8.992 Z M91.624,7.504 L89.816,2.336 L87.992,7.504 L91.624,7.504 Z M98.408,9.792 L102.168,9.792 L102.168,11.264 L96.584,11.264 L96.584,0.144 L98.408,0.144 L98.408,9.792 Z M105.512,0.144 L105.512,11.264 L103.688,11.264 L103.688,0.144 L105.512,0.144 Z M115.096,0.144 L115.096,1.632 L112.136,1.632 L112.136,11.264 L110.312,11.264 L110.312,1.632 L107.336,1.632 L107.336,0.144 L115.096,0.144 Z M125.176,0.144 L121.496,7.232 L121.496,11.264 L119.672,11.264 L119.672,7.232 L115.976,0.144 L118.008,0.144 L120.584,5.6 L123.16,0.144 L125.176,0.144 Z M130.168,5.68 C130.168,4.592 130.421333,3.616 130.928,2.752 C131.434667,1.888 132.122667,1.21333333 132.992,0.728 C133.861333,0.242666667 134.813333,0 135.848,0 C137.032,0 138.085333,0.290666667 139.008,0.872 C139.930667,1.45333333 140.6,2.27733333 141.016,3.344 L138.824,3.344 C138.536,2.75733333 138.136,2.32 137.624,2.032 C137.112,1.744 136.52,1.6 135.848,1.6 C135.112,1.6 134.456,1.76533333 133.88,2.096 C133.304,2.42666667 132.853333,2.90133333 132.528,3.52 C132.202667,4.13866667 132.04,4.85866667 132.04,5.68 C132.04,6.50133333 132.202667,7.22133333 132.528,7.84 C132.853333,8.45866667 133.304,8.936 133.88,9.272 C134.456,9.608 135.112,9.776 135.848,9.776 C136.52,9.776 137.112,9.632 137.624,9.344 C138.136,9.056 138.536,8.61866667 138.824,8.032 L141.016,8.032 C140.6,9.09866667 139.930667,9.92 139.008,10.496 C138.085333,11.072 137.032,11.36 135.848,11.36 C134.802667,11.36 133.848,11.1173333 132.984,10.632 C132.12,10.1466667 131.434667,9.472 130.928,8.608 C130.421333,7.744 130.168,6.768 130.168,5.68 Z M148.216,11.376 C147.181333,11.376 146.229333,11.1333333 145.36,10.648 C144.490667,10.1626667 143.802667,9.48533333 143.296,8.616 C142.789333,7.74666667 142.536,6.768 142.536,5.68 C142.536,4.592 142.789333,3.616 143.296,2.752 C143.802667,1.888 144.490667,1.21333333 145.36,0.728 C146.229333,0.242666667 147.181333,0 148.216,0 C149.261333,0 150.218667,0.242666667 151.088,0.728 C151.957333,1.21333333 152.642667,1.888 153.144,2.752 C153.645333,3.616 153.896,4.592 153.896,5.68 C153.896,6.768 153.645333,7.74666667 153.144,8.616 C152.642667,9.48533333 151.957333,10.1626667 151.088,10.648 C150.218667,11.1333333 149.261333,11.376 148.216,11.376 Z M148.216,9.792 C148.952,9.792 149.608,9.624 150.184,9.288 C150.76,8.952 151.210667,8.472 151.536,7.848 C151.861333,7.224 152.024,6.50133333 152.024,5.68 C152.024,4.85866667 151.861333,4.13866667 151.536,3.52 C151.210667,2.90133333 150.76,2.42666667 150.184,2.096 C149.608,1.76533333 148.952,1.6 148.216,1.6 C147.48,1.6 146.824,1.76533333 146.248,2.096 C145.672,2.42666667 145.221333,2.90133333 144.896,3.52 C144.570667,4.13866667 144.408,4.85866667 144.408,5.68 C144.408,6.50133333 144.570667,7.224 144.896,7.848 C145.221333,8.472 145.672,8.952 146.248,9.288 C146.824,9.624 147.48,9.792 148.216,9.792 Z M167.4,0.144 L167.4,11.264 L165.576,11.264 L165.576,3.648 L162.184,11.264 L160.92,11.264 L157.512,3.648 L157.512,11.264 L155.688,11.264 L155.688,0.144 L157.656,0.144 L161.56,8.864 L165.448,0.144 L167.4,0.144 Z M181.512,0.144 L181.512,11.264 L179.688,11.264 L179.688,3.648 L176.296,11.264 L175.032,11.264 L171.624,3.648 L171.624,11.264 L169.8,11.264 L169.8,0.144 L171.768,0.144 L175.672,8.864 L179.56,0.144 L181.512,0.144 Z M185.72,0.144 L185.72,7.232 C185.72,8.07466667 185.941333,8.70933333 186.384,9.136 C186.826667,9.56266667 187.442667,9.776 188.232,9.776 C189.032,9.776 189.653333,9.56266667 190.096,9.136 C190.538667,8.70933333 190.76,8.07466667 190.76,7.232 L190.76,0.144 L192.584,0.144 L192.584,7.2 C192.584,8.10666667 192.386667,8.87466667 191.992,9.504 C191.597333,10.1333333 191.069333,10.6026667 190.408,10.912 C189.746667,11.2213333 189.016,11.376 188.216,11.376 C187.416,11.376 186.688,11.2213333 186.032,10.912 C185.376,10.6026667 184.856,10.1333333 184.472,9.504 C184.088,8.87466667 183.896,8.10666667 183.896,7.2 L183.896,0.144 L185.72,0.144 Z M204.088,11.264 L202.264,11.264 L196.776,2.96 L196.776,11.264 L194.952,11.264 L194.952,0.128 L196.776,0.128 L202.264,8.416 L202.264,0.128 L204.088,0.128 L204.088,11.264 Z M208.312,0.144 L208.312,11.264 L206.488,11.264 L206.488,0.144 L208.312,0.144 Z M217.896,0.144 L217.896,1.632 L214.936,1.632 L214.936,11.264 L213.112,11.264 L213.112,1.632 L210.136,1.632 L210.136,0.144 L217.896,0.144 Z M221.56,0.144 L221.56,11.264 L219.736,11.264 L219.736,0.144 L221.56,0.144 Z M225.784,1.616 L225.784,4.88 L229.624,4.88 L229.624,6.368 L225.784,6.368 L225.784,9.776 L230.104,9.776 L230.104,11.264 L223.96,11.264 L223.96,0.128 L230.104,0.128 L230.104,1.616 L225.784,1.616 Z M236.008,11.376 C235.261333,11.376 234.589333,11.2453333 233.992,10.984 C233.394667,10.7226667 232.925333,10.352 232.584,9.872 C232.242667,9.392 232.072,8.832 232.072,8.192 L234.024,8.192 C234.066667,8.672 234.256,9.06666667 234.592,9.376 C234.928,9.68533333 235.4,9.84 236.008,9.84 C236.637333,9.84 237.128,9.688 237.48,9.384 C237.832,9.08 238.008,8.688 238.008,8.208 C238.008,7.83466667 237.898667,7.53066667 237.68,7.296 C237.461333,7.06133333 237.189333,6.88 236.864,6.752 C236.538667,6.624 236.088,6.48533333 235.512,6.336 C234.786667,6.144 234.197333,5.94933333 233.744,5.752 C233.290667,5.55466667 232.904,5.248 232.584,4.832 C232.264,4.416 232.104,3.86133333 232.104,3.168 C232.104,2.528 232.264,1.968 232.584,1.488 C232.904,1.008 233.352,0.64 233.928,0.384 C234.504,0.128 235.170667,0 235.928,0 C237.005333,0 237.888,0.269333333 238.576,0.808 C239.264,1.34666667 239.645333,2.08533333 239.72,3.024 L237.704,3.024 C237.672,2.61866667 237.48,2.272 237.128,1.984 C236.776,1.696 236.312,1.552 235.736,1.552 C235.213333,1.552 234.786667,1.68533333 234.456,1.952 C234.125333,2.21866667 233.96,2.60266667 233.96,3.104 C233.96,3.44533333 234.064,3.72533333 234.272,3.944 C234.48,4.16266667 234.744,4.336 235.064,4.464 C235.384,4.592 235.821333,4.73066667 236.376,4.88 C237.112,5.08266667 237.712,5.28533333 238.176,5.488 C238.64,5.69066667 239.034667,6.00266667 239.36,6.424 C239.685333,6.84533333 239.848,7.408 239.848,8.112 C239.848,8.67733333 239.696,9.21066667 239.392,9.712 C239.088,10.2133333 238.645333,10.616 238.064,10.92 C237.482667,11.224 236.797333,11.376 236.008,11.376 Z M27.384,28.144 L27.384,29.632 L24.424,29.632 L24.424,39.264 L22.6,39.264 L22.6,29.632 L19.624,29.632 L19.624,28.144 L27.384,28.144 Z M35.928,36.992 L31.272,36.992 L30.472,39.264 L28.568,39.264 L32.552,28.128 L34.664,28.128 L38.648,39.264 L36.728,39.264 L35.928,36.992 Z M35.416,35.504 L33.608,30.336 L31.784,35.504 L35.416,35.504 Z M46.504,39.264 L42.2,34.288 L42.2,39.264 L40.376,39.264 L40.376,28.144 L42.2,28.144 L42.2,33.216 L46.52,28.144 L48.808,28.144 L43.976,33.712 L48.888,39.264 L46.504,39.264 Z M52.328,29.616 L52.328,32.88 L56.168,32.88 L56.168,34.368 L52.328,34.368 L52.328,37.776 L56.648,37.776 L56.648,39.264 L50.504,39.264 L50.504,28.128 L56.648,28.128 L56.648,29.616 L52.328,29.616 Z M71.288,28.144 L67.608,35.232 L67.608,39.264 L65.784,39.264 L65.784,35.232 L62.088,28.144 L64.12,28.144 L66.696,33.6 L69.272,28.144 L71.288,28.144 Z M77.8,39.376 C76.7653333,39.376 75.8133333,39.1333333 74.944,38.648 C74.0746667,38.1626667 73.3866667,37.4853333 72.88,36.616 C72.3733333,35.7466667 72.12,34.768 72.12,33.68 C72.12,32.592 72.3733333,31.616 72.88,30.752 C73.3866667,29.888 74.0746667,29.2133333 74.944,28.728 C75.8133333,28.2426667 76.7653333,28 77.8,28 C78.8453333,28 79.8026667,28.2426667 80.672,28.728 C81.5413333,29.2133333 82.2266667,29.888 82.728,30.752 C83.2293333,31.616 83.48,32.592 83.48,33.68 C83.48,34.768 83.2293333,35.7466667 82.728,36.616 C82.2266667,37.4853333 81.5413333,38.1626667 80.672,38.648 C79.8026667,39.1333333 78.8453333,39.376 77.8,39.376 Z M77.8,37.792 C78.536,37.792 79.192,37.624 79.768,37.288 C80.344,36.952 80.7946667,36.472 81.12,35.848 C81.4453333,35.224 81.608,34.5013333 81.608,33.68 C81.608,32.8586667 81.4453333,32.1386667 81.12,31.52 C80.7946667,30.9013333 80.344,30.4266667 79.768,30.096 C79.192,29.7653333 78.536,29.6 77.8,29.6 C77.064,29.6 76.408,29.7653333 75.832,30.096 C75.256,30.4266667 74.8053333,30.9013333 74.48,31.52 C74.1546667,32.1386667 73.992,32.8586667 73.992,33.68 C73.992,34.5013333 74.1546667,35.224 74.48,35.848 C74.8053333,36.472 75.256,36.952 75.832,37.288 C76.408,37.624 77.064,37.792 77.8,37.792 Z M87.08,28.144 L87.08,35.232 C87.08,36.0746667 87.3013333,36.7093333 87.744,37.136 C88.1866667,37.5626667 88.8026667,37.776 89.592,37.776 C90.392,37.776 91.0133333,37.5626667 91.456,37.136 C91.8986667,36.7093333 92.12,36.0746667 92.12,35.232 L92.12,28.144 L93.944,28.144 L93.944,35.2 C93.944,36.1066667 93.7466667,36.8746667 93.352,37.504 C92.9573333,38.1333333 92.4293333,38.6026667 91.768,38.912 C91.1066667,39.2213333 90.376,39.376 89.576,39.376 C88.776,39.376 88.048,39.2213333 87.392,38.912 C86.736,38.6026667 86.216,38.1333333 85.832,37.504 C85.448,36.8746667 85.256,36.1066667 85.256,35.2 L85.256,28.144 L87.08,28.144 Z M107.656,28.144 L107.656,29.632 L104.696,29.632 L104.696,39.264 L102.872,39.264 L102.872,29.632 L99.896,29.632 L99.896,28.144 L107.656,28.144 Z M114.568,39.376 C113.533333,39.376 112.581333,39.1333333 111.712,38.648 C110.842667,38.1626667 110.154667,37.4853333 109.648,36.616 C109.141333,35.7466667 108.888,34.768 108.888,33.68 C108.888,32.592 109.141333,31.616 109.648,30.752 C110.154667,29.888 110.842667,29.2133333 111.712,28.728 C112.581333,28.2426667 113.533333,28 114.568,28 C115.613333,28 116.570667,28.2426667 117.44,28.728 C118.309333,29.2133333 118.994667,29.888 119.496,30.752 C119.997333,31.616 120.248,32.592 120.248,33.68 C120.248,34.768 119.997333,35.7466667 119.496,36.616 C118.994667,37.4853333 118.309333,38.1626667 117.44,38.648 C116.570667,39.1333333 115.613333,39.376 114.568,39.376 Z M114.568,37.792 C115.304,37.792 115.96,37.624 116.536,37.288 C117.112,36.952 117.562667,36.472 117.888,35.848 C118.213333,35.224 118.376,34.5013333 118.376,33.68 C118.376,32.8586667 118.213333,32.1386667 117.888,31.52 C117.562667,30.9013333 117.112,30.4266667 116.536,30.096 C115.96,29.7653333 115.304,29.6 114.568,29.6 C113.832,29.6 113.176,29.7653333 112.6,30.096 C112.024,30.4266667 111.573333,30.9013333 111.248,31.52 C110.922667,32.1386667 110.76,32.8586667 110.76,33.68 C110.76,34.5013333 110.922667,35.224 111.248,35.848 C111.573333,36.472 112.024,36.952 112.6,37.288 C113.176,37.624 113.832,37.792 114.568,37.792 Z M134.248,31.344 C133.96,30.7893333 133.56,30.3706667 133.048,30.088 C132.536,29.8053333 131.944,29.664 131.272,29.664 C130.536,29.664 129.88,29.8293333 129.304,30.16 C128.728,30.4906667 128.277333,30.96 127.952,31.568 C127.626667,32.176 127.464,32.88 127.464,33.68 C127.464,34.48 127.626667,35.1866667 127.952,35.8 C128.277333,36.4133333 128.728,36.8853333 129.304,37.216 C129.88,37.5466667 130.536,37.712 131.272,37.712 C132.264,37.712 133.069333,37.4346667 133.688,36.88 C134.306667,36.3253333 134.685333,35.5733333 134.824,34.624 L130.648,34.624 L130.648,33.168 L136.776,33.168 L136.776,34.592 C136.658667,35.456 136.352,36.2506667 135.856,36.976 C135.36,37.7013333 134.714667,38.28 133.92,38.712 C133.125333,39.144 132.242667,39.36 131.272,39.36 C130.226667,39.36 129.272,39.1173333 128.408,38.632 C127.544,38.1466667 126.858667,37.472 126.352,36.608 C125.845333,35.744 125.592,34.768 125.592,33.68 C125.592,32.592 125.845333,31.616 126.352,30.752 C126.858667,29.888 127.546667,29.2133333 128.416,28.728 C129.285333,28.2426667 130.237333,28 131.272,28 C132.456,28 133.509333,28.2906667 134.432,28.872 C135.354667,29.4533333 136.024,30.2773333 136.44,31.344 L134.248,31.344 Z M140.392,29.616 L140.392,32.88 L144.232,32.88 L144.232,34.368 L140.392,34.368 L140.392,37.776 L144.712,37.776 L144.712,39.264 L138.568,39.264 L138.568,28.128 L144.712,28.128 L144.712,29.616 L140.392,29.616 Z M154.136,28.144 L154.136,29.632 L151.176,29.632 L151.176,39.264 L149.352,39.264 L149.352,29.632 L146.376,29.632 L146.376,28.144 L154.136,28.144 Z M171.848,28.144 L171.848,39.264 L170.024,39.264 L170.024,31.648 L166.632,39.264 L165.368,39.264 L161.96,31.648 L161.96,39.264 L160.136,39.264 L160.136,28.144 L162.104,28.144 L166.008,36.864 L169.896,28.144 L171.848,28.144 Z M179.32,39.376 C178.285333,39.376 177.333333,39.1333333 176.464,38.648 C175.594667,38.1626667 174.906667,37.4853333 174.4,36.616 C173.893333,35.7466667 173.64,34.768 173.64,33.68 C173.64,32.592 173.893333,31.616 174.4,30.752 C174.906667,29.888 175.594667,29.2133333 176.464,28.728 C177.333333,28.2426667 178.285333,28 179.32,28 C180.365333,28 181.322667,28.2426667 182.192,28.728 C183.061333,29.2133333 183.746667,29.888 184.248,30.752 C184.749333,31.616 185,32.592 185,33.68 C185,34.768 184.749333,35.7466667 184.248,36.616 C183.746667,37.4853333 183.061333,38.1626667 182.192,38.648 C181.322667,39.1333333 180.365333,39.376 179.32,39.376 Z M179.32,37.792 C180.056,37.792 180.712,37.624 181.288,37.288 C181.864,36.952 182.314667,36.472 182.64,35.848 C182.965333,35.224 183.128,34.5013333 183.128,33.68 C183.128,32.8586667 182.965333,32.1386667 182.64,31.52 C182.314667,30.9013333 181.864,30.4266667 181.288,30.096 C180.712,29.7653333 180.056,29.6 179.32,29.6 C178.584,29.6 177.928,29.7653333 177.352,30.096 C176.776,30.4266667 176.325333,30.9013333 176,31.52 C175.674667,32.1386667 175.512,32.8586667 175.512,33.68 C175.512,34.5013333 175.674667,35.224 176,35.848 C176.325333,36.472 176.776,36.952 177.352,37.288 C177.928,37.624 178.584,37.792 179.32,37.792 Z M192.568,39.264 L190.008,34.816 L188.616,34.816 L188.616,39.264 L186.792,39.264 L186.792,28.144 L190.632,28.144 C191.485333,28.144 192.208,28.2933333 192.8,28.592 C193.392,28.8906667 193.834667,29.2906667 194.128,29.792 C194.421333,30.2933333 194.568,30.8533333 194.568,31.472 C194.568,32.1973333 194.357333,32.856 193.936,33.448 C193.514667,34.04 192.866667,34.4426667 191.992,34.656 L194.744,39.264 L192.568,39.264 Z M188.616,33.36 L190.632,33.36 C191.314667,33.36 191.829333,33.1893333 192.176,32.848 C192.522667,32.5066667 192.696,32.048 192.696,31.472 C192.696,30.896 192.525333,30.4453333 192.184,30.12 C191.842667,29.7946667 191.325333,29.632 190.632,29.632 L188.616,29.632 L188.616,33.36 Z M198.728,29.616 L198.728,32.88 L202.568,32.88 L202.568,34.368 L198.728,34.368 L198.728,37.776 L203.048,37.776 L203.048,39.264 L196.904,39.264 L196.904,28.128 L203.048,28.128 L203.048,29.616 L198.728,29.616 Z M29.784,56.144 L25.608,67.264 L23.496,67.264 L19.304,56.144 L21.256,56.144 L24.552,65.392 L27.864,56.144 L29.784,56.144 Z M38.008,64.992 L33.352,64.992 L32.552,67.264 L30.648,67.264 L34.632,56.128 L36.744,56.128 L40.728,67.264 L38.808,67.264 L38.008,64.992 Z M37.496,63.504 L35.688,58.336 L33.864,63.504 L37.496,63.504 Z M44.28,65.792 L48.04,65.792 L48.04,67.264 L42.456,67.264 L42.456,56.144 L44.28,56.144 L44.28,65.792 Z M51.368,56.144 L51.368,63.232 C51.368,64.0746667 51.5893333,64.7093333 52.032,65.136 C52.4746667,65.5626667 53.0906667,65.776 53.88,65.776 C54.68,65.776 55.3013333,65.5626667 55.744,65.136 C56.1866667,64.7093333 56.408,64.0746667 56.408,63.232 L56.408,56.144 L58.232,56.144 L58.232,63.2 C58.232,64.1066667 58.0346667,64.8746667 57.64,65.504 C57.2453333,66.1333333 56.7173333,66.6026667 56.056,66.912 C55.3946667,67.2213333 54.664,67.376 53.864,67.376 C53.064,67.376 52.336,67.2213333 51.68,66.912 C51.024,66.6026667 50.504,66.1333333 50.12,65.504 C49.736,64.8746667 49.544,64.1066667 49.544,63.2 L49.544,56.144 L51.368,56.144 Z M62.424,57.616 L62.424,60.88 L66.264,60.88 L66.264,62.368 L62.424,62.368 L62.424,65.776 L66.744,65.776 L66.744,67.264 L60.6,67.264 L60.6,56.128 L66.744,56.128 L66.744,57.616 L62.424,57.616 Z M74.968,56.144 L74.968,67.264 L73.144,67.264 L73.144,56.144 L74.968,56.144 Z M86.504,67.264 L84.68,67.264 L79.192,58.96 L79.192,67.264 L77.368,67.264 L77.368,56.128 L79.192,56.128 L84.68,64.416 L84.68,56.128 L86.504,56.128 L86.504,67.264 Z M98.84,67.264 L96.28,62.816 L94.888,62.816 L94.888,67.264 L93.064,67.264 L93.064,56.144 L96.904,56.144 C97.7573333,56.144 98.48,56.2933333 99.072,56.592 C99.664,56.8906667 100.106667,57.2906667 100.4,57.792 C100.693333,58.2933333 100.84,58.8533333 100.84,59.472 C100.84,60.1973333 100.629333,60.856 100.208,61.448 C99.7866667,62.04 99.1386667,62.4426667 98.264,62.656 L101.016,67.264 L98.84,67.264 Z M94.888,61.36 L96.904,61.36 C97.5866667,61.36 98.1013333,61.1893333 98.448,60.848 C98.7946667,60.5066667 98.968,60.048 98.968,59.472 C98.968,58.896 98.7973333,58.4453333 98.456,58.12 C98.1146667,57.7946667 97.5973333,57.632 96.904,57.632 L94.888,57.632 L94.888,61.36 Z M105,57.616 L105,60.88 L108.84,60.88 L108.84,62.368 L105,62.368 L105,65.776 L109.32,65.776 L109.32,67.264 L103.176,67.264 L103.176,56.128 L109.32,56.128 L109.32,57.616 L105,57.616 Z M118.744,56.144 L118.744,57.632 L115.784,57.632 L115.784,67.264 L113.96,67.264 L113.96,57.632 L110.984,57.632 L110.984,56.144 L118.744,56.144 Z M122.392,56.144 L122.392,63.232 C122.392,64.0746667 122.613333,64.7093333 123.056,65.136 C123.498667,65.5626667 124.114667,65.776 124.904,65.776 C125.704,65.776 126.325333,65.5626667 126.768,65.136 C127.210667,64.7093333 127.432,64.0746667 127.432,63.232 L127.432,56.144 L129.256,56.144 L129.256,63.2 C129.256,64.1066667 129.058667,64.8746667 128.664,65.504 C128.269333,66.1333333 127.741333,66.6026667 127.08,66.912 C126.418667,67.2213333 125.688,67.376 124.888,67.376 C124.088,67.376 123.36,67.2213333 122.704,66.912 C122.048,66.6026667 121.528,66.1333333 121.144,65.504 C120.76,64.8746667 120.568,64.1066667 120.568,63.2 L120.568,56.144 L122.392,56.144 Z M137.4,67.264 L134.84,62.816 L133.448,62.816 L133.448,67.264 L131.624,67.264 L131.624,56.144 L135.464,56.144 C136.317333,56.144 137.04,56.2933333 137.632,56.592 C138.224,56.8906667 138.666667,57.2906667 138.96,57.792 C139.253333,58.2933333 139.4,58.8533333 139.4,59.472 C139.4,60.1973333 139.189333,60.856 138.768,61.448 C138.346667,62.04 137.698667,62.4426667 136.824,62.656 L139.576,67.264 L137.4,67.264 Z M133.448,61.36 L135.464,61.36 C136.146667,61.36 136.661333,61.1893333 137.008,60.848 C137.354667,60.5066667 137.528,60.048 137.528,59.472 C137.528,58.896 137.357333,58.4453333 137.016,58.12 C136.674667,57.7946667 136.157333,57.632 135.464,57.632 L133.448,57.632 L133.448,61.36 Z M150.872,67.264 L149.048,67.264 L143.56,58.96 L143.56,67.264 L141.736,67.264 L141.736,56.128 L143.56,56.128 L149.048,64.416 L149.048,56.128 L150.872,56.128 L150.872,67.264 Z M159.72,56.144 L159.512,63.904 L157.992,63.904 L157.784,56.144 L159.72,56.144 Z M158.808,67.376 C158.477333,67.376 158.2,67.264 157.976,67.04 C157.752,66.816 157.64,66.5386667 157.64,66.208 C157.64,65.8773333 157.752,65.6 157.976,65.376 C158.2,65.152 158.477333,65.04 158.808,65.04 C159.128,65.04 159.4,65.152 159.624,65.376 C159.848,65.6 159.96,65.8773333 159.96,66.208 C159.96,66.5386667 159.848,66.816 159.624,67.04 C159.4,67.264 159.128,67.376 158.808,67.376 Z" id="形状结合" fill="#FFFFFF" fill-rule="nonzero"></path>
                        <line x1="1.39129724e-13" y1="5.764" x2="44.3599699" y2="5.764" id="路径-2" stroke="#FFFFFF"></line>
                    </g>
                </g>
            </g>
        </g>
    </g>
</svg>