<?xml version="1.0" encoding="UTF-8"?>
<svg width="219px" height="100px" viewBox="0 0 219 100" version="1.1" xmlns="http://www.w3.org/2000/svg" xmlns:xlink="http://www.w3.org/1999/xlink">
    <title>Our备份 + Our 蒙版备份</title>
    <defs>
        <rect id="path-1" x="0" y="0" width="219" height="100"></rect>
        <linearGradient x1="54.3457613%" y1="36.5215433%" x2="54.3041975%" y2="36.4629777%" id="linearGradient-3">
            <stop stop-color="#111111" offset="0%"></stop>
            <stop stop-color="#FFFFFF" offset="100%"></stop>
        </linearGradient>
    </defs>
    <g id="首页" stroke="none" stroke-width="1" fill="none" fill-rule="evenodd">
        <g id="1920" transform="translate(-313.000000, -1840.000000)">
            <g id="Our备份-+-Our-蒙版备份" transform="translate(313.000000, 1840.000000)">
                <mask id="mask-2" fill="white">
                    <use xlink:href="#path-1"></use>
                </mask>
                <g id="蒙版"></g>
                <g id="Our备份" mask="url(#mask-2)" fill="#FFFFFF" fill-rule="nonzero">
                    <g transform="translate(2.900000, 14.300000)" id="形状结合">
                        <path d="M35,-1 C56.9539096,-1 71,13.8536685 71,37.2 C71,60.5463315 56.9539096,75.4 35,75.4 C13.0797171,75.4 -1,60.4818603 -1,37.2 C-1,13.8536685 13.0460904,-1 35,-1 Z M35,1 C14.1764338,1 1,14.9340112 1,37.2 C1,59.4023286 14.2109806,73.4 35,73.4 C55.8235662,73.4 69,59.4659888 69,37.2 C69,14.9340112 55.8235662,1 35,1 Z M35,12.2 C46.6959923,12.2 53.6,21.6536205 53.6,37.2 C53.6,52.7463795 46.6959923,62.2 35,62.2 C23.3094301,62.2 16.3,52.6521755 16.3,37.2 C16.3,21.6838639 23.2835725,12.2 35,12.2 Z M35,14.2 C24.5437003,14.2 18.3,22.6790991 18.3,37.2 C18.3,51.6577011 24.5712346,60.2 35,60.2 C45.4312805,60.2 51.6,51.7532056 51.6,37.2 C51.6,22.6467944 45.4312805,14.2 35,14.2 Z M97.2,0.7 L78.3,0.7 L78.3,47.9 C78.3,64.8398026 90.1515259,75.4 109.4,75.4 C128.648474,75.4 140.5,64.8398026 140.5,47.9 L140.5,0.7 L121.6,0.7 L121.6,47.2 C121.6,55.0236657 117.073709,59.7 109.4,59.7 C101.663675,59.7 97.2,55.0627379 97.2,47.2 L97.2,0.7 Z M123.599,2.699 L138.499,2.699 L138.5,47.9 C138.5,63.6805364 127.592015,73.4 109.4,73.4 L108.856428,73.3970878 C90.990916,73.2050046 80.3,63.5227311 80.3,47.9 L80.299,2.699 L95.199,2.699 L95.2,47.2 C95.2,56.1505955 100.541673,61.7 109.4,61.7 L109.745334,61.6971038 C118.334486,61.5524213 123.6,55.9966151 123.6,47.2 L123.599,2.699 Z M184.5,0.7 C202.141278,0.7 211.5,9.12285013 211.5,23.5 C211.5,32.5980898 206.825443,39.9131915 198.503486,43.3545824 L198.110727,43.5130524 L198.021,43.547 L213.959742,73.7 L193.381966,73.7 L179.781,46.499 L171.199,46.499 L171.2,73.7 L152.3,73.7 L152.3,0.7 L184.5,0.7 Z M184.5,2.7 L154.299,2.699 L154.299,71.699 L169.199,71.699 L169.2,44.5 L181.018034,44.5 L194.617,71.699 L210.639,71.699 L195.166409,42.4278141 L196.280684,42.0523518 C204.762346,39.1944004 209.5,32.3171607 209.5,23.5 C209.5,10.4093784 201.248484,2.85210757 184.99498,2.70227121 L184.5,2.7 Z M181.1,12.6 C189.596516,12.6 193.9,16.4253193 193.9,23.5 C193.9,30.6743563 189.631303,34.7745673 181.479016,34.8971691 L181.1,34.9 L169.2,34.9 L169.2,12.6 L181.1,12.6 Z M181.1,14.6 L171.199,14.599 L171.199,32.899 L181.1,32.9 C188.423274,32.9 191.9,29.6490352 191.9,23.5 C191.9,17.6843619 188.652018,14.7003398 181.468651,14.6024879 L181.1,14.6 Z"></path>
                    </g>
                </g>
                <g id="Our备份-2" mask="url(#mask-2)" fill-rule="nonzero">
                    <g transform="translate(2.900000, 14.300000)">
                        <path d="M35,74.4 C56.3,74.4 70,60.1 70,37.2 C70,14.3 56.3,0 35,0 C13.7,0 0,14.3 0,37.2 C0,60 13.7,74.4 35,74.4 Z M35,61.2 C23.9,61.2 17.3,52.1 17.3,37.2 C17.3,22.2 23.9,13.2 35,13.2 C46.1,13.2 52.6,22.2 52.6,37.2 C52.6,52.2 46.1,61.2 35,61.2 Z M79.3,47.9 C79.3,64.1 90.5,74.4 109.4,74.4 C128.3,74.4 139.5,64.1 139.5,47.9 L139.5,1.7 L122.6,1.7 L122.6,47.2 C122.6,55.5 117.7,60.7 109.4,60.7 C101,60.7 96.2,55.5 96.2,47.2 L96.2,1.7 L79.3,1.7 L79.3,47.9 Z" id="形状结合" fill="#FFFFFF"></path>
                        <path d="M212.3,72.7 L196.6,43 C205.8,39.9 210.5,32.4 210.5,23.5 C210.5,10.5 202.5,1.7 184.5,1.7 L153.3,1.7 L153.3,72.7 L170.2,72.7 L170.2,45.5 L180.4,45.5 L194,72.7 L212.3,72.7 Z M181.1,13.6 C189.4,13.6 192.9,17.3 192.9,23.5 C192.9,29.9 189.3,33.9 181.1,33.9 L170.2,33.9 L170.2,13.6 L181.1,13.6 Z" id="形状" fill="url(#linearGradient-3)"></path>
                    </g>
                </g>
            </g>
        </g>
    </g>
</svg>