<?xml version="1.0" encoding="UTF-8"?>
<svg width="280px" height="156px" viewBox="0 0 280 156" version="1.1" xmlns="http://www.w3.org/2000/svg" xmlns:xlink="http://www.w3.org/1999/xlink">
    <title>编组 46</title>
    <defs>
        <rect id="path-1" x="0" y="0" width="280" height="156"></rect>
    </defs>
    <g id="首页" stroke="none" stroke-width="1" fill="none" fill-rule="evenodd">
        <g id="1920" transform="translate(-1327.000000, -2964.000000)">
            <g id="编组-46" transform="translate(1327.000000, 2964.000000)">
                <mask id="mask-2" fill="white">
                    <use xlink:href="#path-1"></use>
                </mask>
                <g id="蒙版"></g>
                <g mask="url(#mask-2)">
                    <g transform="translate(0.000000, 8.000000)">
                        <text id="Bring-financial-rewa" fill="none" font-family="Poppins-Medium, Poppins" font-size="16" font-weight="400" line-spacing="24">
                            <tspan x="68.528" y="93" fill="#303033">Bring financial rewards for </tspan>
                            <tspan x="20.368" y="117" fill="#303033">community members to explore </tspan>
                            <tspan x="33.856" y="141" fill="#303033">early and high quality projects</tspan>
                        </text>
                        <g id="05" stroke-width="1" fill="none" fill-rule="evenodd" transform="translate(251.000000, 30.000000)">
                            <path d="M7.176,17.4 C5.688,17.4 4.404,17.056 3.324,16.368 C2.244,15.68 1.42,14.684 0.852,13.38 C0.284,12.076 0,10.52 0,8.712 C0,6.888 0.284,5.324 0.852,4.02 C1.42,2.716 2.24,1.72 3.312,1.032 C4.384,0.344 5.672,0 7.176,0 C9.448,0 11.216,0.764 12.48,2.292 C13.744,3.82 14.376,5.96 14.376,8.712 C14.376,10.52 14.092,12.076 13.524,13.38 C12.956,14.684 12.132,15.68 11.052,16.368 C9.972,17.056 8.68,17.4 7.176,17.4 Z M7.176,14.4 C8.216,14.4 9.012,13.916 9.564,12.948 C10.116,11.98 10.392,10.568 10.392,8.712 C10.392,6.856 10.116,5.44 9.564,4.464 C9.012,3.488 8.216,3 7.176,3 C6.152,3 5.364,3.488 4.812,4.464 C4.26,5.44 3.984,6.856 3.984,8.712 C3.984,10.568 4.26,11.98 4.812,12.948 C5.364,13.916 6.152,14.4 7.176,14.4 Z" id="形状" fill="#303033" fill-rule="nonzero"></path>
                            <path d="M22.248,17.4 C20.52,17.4 19.096,16.988 17.976,16.164 C16.856,15.34 16.176,14.208 15.936,12.768 L19.704,12.168 C19.832,12.856 20.116,13.396 20.556,13.788 C20.996,14.18 21.552,14.376 22.224,14.376 C23.056,14.376 23.7,14.12 24.156,13.608 C24.612,13.096 24.84,12.384 24.84,11.472 C24.84,10.544 24.616,9.8 24.168,9.24 C23.72,8.68 23.096,8.4 22.296,8.4 C21.656,8.4 21.116,8.572 20.676,8.916 C20.236,9.26 19.928,9.752 19.752,10.392 L16.296,10.056 L17.328,0.36 L27.816,0.36 L27.816,3.432 L20.16,3.432 L19.704,7.248 C20.072,6.704 20.568,6.292 21.192,6.012 C21.816,5.732 22.544,5.592 23.376,5.592 C25.024,5.592 26.32,6.104 27.264,7.128 C28.208,8.152 28.68,9.56 28.68,11.352 C28.68,13.224 28.108,14.7 26.964,15.78 C25.82,16.86 24.248,17.4 22.248,17.4 Z" id="路径" fill="#303033" fill-rule="nonzero"></path>
                        </g>
                        <path d="M204.753235,0 L204.895585,0.127318234 L272.00037,60.1450328 C273.68574,58.6344196 276.273735,58.6019146 277.999962,60.1458641 C279.8524,61.8026974 280.010969,64.647524 278.354136,66.4999621 C276.697303,68.3524002 273.852476,68.5109692 272.000038,66.8541359 C270.273593,65.3099916 270.018437,62.7339605 271.332953,60.8911034 L204.371,1 L27,1 L27,0 L204.753235,0 Z M272.391228,61.1666962 C271.10258,62.6074814 271.225911,64.8201242 272.666696,66.1087724 C274.107481,67.3974205 276.320124,67.274089 277.608772,65.8333038 C278.89742,64.3925186 278.774089,62.1798758 277.333304,60.8912276 C275.892519,59.6025795 273.679876,59.725911 272.391228,61.1666962 Z" id="路径-16备份-2" fill="#303033" fill-rule="nonzero" transform="translate(153.250022, 34.000022) scale(-1, -1) translate(-153.250022, -34.000022) "></path>
                    </g>
                </g>
            </g>
        </g>
    </g>
</svg>