<?xml version="1.0" encoding="UTF-8"?>
<svg width="280px" height="156px" viewBox="0 0 280 156" version="1.1" xmlns="http://www.w3.org/2000/svg" xmlns:xlink="http://www.w3.org/1999/xlink">
    <title>编组 48</title>
    <defs>
        <rect id="path-1" x="0" y="0" width="280" height="156"></rect>
    </defs>
    <g id="首页" stroke="none" stroke-width="1" fill="none" fill-rule="evenodd">
        <g id="画板" transform="translate(-2137.000000, -581.000000)">
            <g id="编组-48" transform="translate(2137.000000, 581.000000)">
                <mask id="mask-2" fill="white">
                    <use xlink:href="#path-1"></use>
                </mask>
                <g id="蒙版"></g>
                <g mask="url(#mask-2)">
                    <g transform="translate(0.000000, 9.000000)">
                        <text id="The-perfect-combinat" fill="none" font-family="Poppins-Medium, Poppins" font-size="16" font-weight="400" line-spacing="24">
                            <tspan x="0" y="92.5" fill="#FFFFFF">The perfect combination of </tspan>
                            <tspan x="0" y="116.5" fill="#FFFFFF">entertainment and practicality in </tspan>
                            <tspan x="0" y="140.5" fill="#FFFFFF">form of Gamefi and Testfi</tspan>
                        </text>
                        <path d="M177.753235,0 L177.895585,0.127318234 L245.00037,60.1450328 C246.68574,58.6344196 249.273735,58.6019146 250.999962,60.1458641 C252.8524,61.8026974 253.010969,64.647524 251.354136,66.4999621 C249.697303,68.3524002 246.852476,68.5109692 245.000038,66.8541359 C243.273593,65.3099916 243.018437,62.7339605 244.332953,60.8911034 L177.371,1 L0,1 L0,0 L177.753235,0 Z M245.391228,61.1666962 C244.10258,62.6074814 244.225911,64.8201242 245.666696,66.1087724 C247.107481,67.3974205 249.320124,67.274089 250.608772,65.8333038 C251.89742,64.3925186 251.774089,62.1798758 250.333304,60.8912276 C248.892519,59.6025795 246.679876,59.725911 245.391228,61.1666962 Z" id="路径-16" fill="#FFFFFF" fill-rule="nonzero" transform="translate(126.250022, 34.000022) scale(1, -1) translate(-126.250022, -34.000022) "></path>
                        <g id="03" stroke-width="1" fill="none" fill-rule="evenodd" transform="translate(0.816000, 29.460000)">
                            <path d="M7.176,17.4 C5.688,17.4 4.404,17.056 3.324,16.368 C2.244,15.68 1.42,14.684 0.852,13.38 C0.284,12.076 0,10.52 0,8.712 C0,6.888 0.284,5.324 0.852,4.02 C1.42,2.716 2.24,1.72 3.312,1.032 C4.384,0.344 5.672,0 7.176,0 C9.448,0 11.216,0.764 12.48,2.292 C13.744,3.82 14.376,5.96 14.376,8.712 C14.376,10.52 14.092,12.076 13.524,13.38 C12.956,14.684 12.132,15.68 11.052,16.368 C9.972,17.056 8.68,17.4 7.176,17.4 Z M7.176,14.4 C8.216,14.4 9.012,13.916 9.564,12.948 C10.116,11.98 10.392,10.568 10.392,8.712 C10.392,6.856 10.116,5.44 9.564,4.464 C9.012,3.488 8.216,3 7.176,3 C6.152,3 5.364,3.488 4.812,4.464 C4.26,5.44 3.984,6.856 3.984,8.712 C3.984,10.568 4.26,11.98 4.812,12.948 C5.364,13.916 6.152,14.4 7.176,14.4 Z" id="形状" fill="#FFFFFF" fill-rule="nonzero"></path>
                            <path d="M22.368,17.4 C21.04,17.4 19.884,17.18 18.9,16.74 C17.916,16.3 17.156,15.672 16.62,14.856 C16.084,14.04 15.808,13.08 15.792,11.976 L19.704,11.616 C19.72,12.496 19.968,13.184 20.448,13.68 C20.928,14.176 21.576,14.424 22.392,14.424 C23.176,14.424 23.776,14.224 24.192,13.824 C24.608,13.424 24.816,12.856 24.816,12.12 C24.816,10.632 23.856,9.888 21.936,9.888 L21.024,9.888 L21.024,7.248 L21.888,7.248 C22.736,7.248 23.376,7.06 23.808,6.684 C24.24,6.308 24.456,5.76 24.456,5.04 C24.456,4.368 24.26,3.848 23.868,3.48 C23.476,3.112 22.928,2.928 22.224,2.928 C21.44,2.928 20.836,3.184 20.412,3.696 C19.988,4.208 19.776,4.928 19.776,5.856 L15.96,5.352 C15.96,4.28 16.224,3.34 16.752,2.532 C17.28,1.724 18.032,1.1 19.008,0.66 C19.984,0.22 21.12,0 22.416,0 C24.336,0 25.82,0.4 26.868,1.2 C27.916,2 28.44,3.128 28.44,4.584 C28.44,5.512 28.136,6.324 27.528,7.02 C26.92,7.716 26.112,8.176 25.104,8.4 C26.336,8.576 27.272,9.004 27.912,9.684 C28.552,10.364 28.872,11.264 28.872,12.384 C28.872,13.392 28.604,14.276 28.068,15.036 C27.532,15.796 26.776,16.38 25.8,16.788 C24.824,17.196 23.68,17.4 22.368,17.4 Z" id="路径" fill="#FFFFFF" fill-rule="nonzero"></path>
                        </g>
                    </g>
                </g>
            </g>
        </g>
    </g>
</svg>