<?xml version="1.0" encoding="UTF-8"?>
<svg width="243px" height="124px" viewBox="0 0 243 124" version="1.1" xmlns="http://www.w3.org/2000/svg" xmlns:xlink="http://www.w3.org/1999/xlink">
    <title>编组 53</title>
    <defs>
        <rect id="path-1" x="0" y="0" width="243" height="124"></rect>
    </defs>
    <g id="首页" stroke="none" stroke-width="1" fill="none" fill-rule="evenodd">
        <g id="1920" transform="translate(-1364.000000, -2506.000000)">
            <g id="编组-53" transform="translate(1364.000000, 2506.000000)">
                <mask id="mask-2" fill="white">
                    <use xlink:href="#path-1"></use>
                </mask>
                <g id="蒙版"></g>
                <g mask="url(#mask-2)">
                    <g transform="translate(0.000000, 6.000000)">
                        <text id="The-first-Community-" fill="none" font-family="Poppins-Medium, Poppins" font-size="16" font-weight="400" line-spacing="24">
                            <tspan x="69.784" y="63.04" fill="#FFFFFF">The first Community-</tspan>
                            <tspan x="21.56" y="87.04" fill="#FFFFFF">Driven Testing&amp;Fundraising </tspan>
                            <tspan x="174.168" y="111.04" fill="#FFFFFF">Platform</tspan>
                        </text>
                        <g id="02" stroke-width="1" fill="none" fill-rule="evenodd" transform="translate(213.720000, 0.000000)">
                            <path d="M7.176,17.4 C5.688,17.4 4.404,17.056 3.324,16.368 C2.244,15.68 1.42,14.684 0.852,13.38 C0.284,12.076 0,10.52 0,8.712 C0,6.888 0.284,5.324 0.852,4.02 C1.42,2.716 2.24,1.72 3.312,1.032 C4.384,0.344 5.672,0 7.176,0 C9.448,0 11.216,0.764 12.48,2.292 C13.744,3.82 14.376,5.96 14.376,8.712 C14.376,10.52 14.092,12.076 13.524,13.38 C12.956,14.684 12.132,15.68 11.052,16.368 C9.972,17.056 8.68,17.4 7.176,17.4 Z M7.176,14.4 C8.216,14.4 9.012,13.916 9.564,12.948 C10.116,11.98 10.392,10.568 10.392,8.712 C10.392,6.856 10.116,5.44 9.564,4.464 C9.012,3.488 8.216,3 7.176,3 C6.152,3 5.364,3.488 4.812,4.464 C4.26,5.44 3.984,6.856 3.984,8.712 C3.984,10.568 4.26,11.98 4.812,12.948 C5.364,13.916 6.152,14.4 7.176,14.4 Z" id="形状" fill="#FFFFFF" fill-rule="nonzero"></path>
                            <path d="M15.888,14.208 C18.544,12.592 20.552,11.152 21.912,9.888 C22.728,9.136 23.312,8.42 23.664,7.74 C24.016,7.06 24.192,6.312 24.192,5.496 C24.192,4.712 24.008,4.108 23.64,3.684 C23.272,3.26 22.736,3.048 22.032,3.048 C21.328,3.048 20.776,3.26 20.376,3.684 C19.976,4.108 19.776,4.696 19.776,5.448 C19.776,5.768 19.832,6.224 19.944,6.816 L16.008,6.432 C15.912,6 15.864,5.568 15.864,5.136 C15.864,4.096 16.124,3.192 16.644,2.424 C17.164,1.656 17.9,1.06 18.852,0.636 C19.804,0.212 20.928,0 22.224,0 C24.144,0 25.64,0.456 26.712,1.368 C27.784,2.28 28.32,3.56 28.32,5.208 C28.32,6.312 28.072,7.348 27.576,8.316 C27.08,9.284 26.328,10.224 25.32,11.136 C24.216,12.096 22.832,13.04 21.168,13.968 L28.464,13.968 L28.464,17.04 L15.888,17.04 L15.888,14.208 Z" id="路径" fill="#FFFFFF" fill-rule="nonzero"></path>
                        </g>
                        <path d="M177.721975,34.04 L177.852116,34.1325925 L234.645767,74.5395503 C236.152814,72.8506174 238.72149,72.5305961 240.608745,73.8733329 C242.63379,75.3141032 243.107437,78.123701 241.666667,80.1487454 C240.225897,82.1737897 237.416299,82.6474374 235.391255,81.2066671 C233.504123,79.8640186 232.964273,77.3326383 234.065491,75.3552301 L177.403,35.04 L0,35.04 L0,34.04 L177.721975,34.04 Z M235.148148,75.5109758 C234.027549,77.0860103 234.395941,79.2712531 235.970976,80.3918522 C237.54601,81.5124513 239.731253,81.1440586 240.851852,79.5690242 C241.972451,77.9939897 241.604059,75.8087469 240.029024,74.6881478 C238.45399,73.5675487 236.268747,73.9359414 235.148148,75.5109758 Z" id="路径-16备份" fill="#FFFFFF" fill-rule="nonzero" transform="translate(121.250178, 58.040178) scale(-1, 1) translate(-121.250178, -58.040178) "></path>
                    </g>
                </g>
            </g>
        </g>
    </g>
</svg>