<?xml version="1.0" encoding="UTF-8"?>
<svg width="243px" height="124px" viewBox="0 0 243 124" version="1.1" xmlns="http://www.w3.org/2000/svg" xmlns:xlink="http://www.w3.org/1999/xlink">
    <title>编组 47</title>
    <defs>
        <rect id="path-1" x="0" y="0" width="243" height="124"></rect>
    </defs>
    <g id="首页" stroke="none" stroke-width="1" fill="none" fill-rule="evenodd">
        <g id="1920" transform="translate(-318.000000, -2506.000000)">
            <g id="编组-47" transform="translate(318.000000, 2506.000000)">
                <mask id="mask-2" fill="white">
                    <use xlink:href="#path-1"></use>
                </mask>
                <g id="蒙版"></g>
                <g mask="url(#mask-2)">
                    <g transform="translate(0.000000, 3.960000)">
                        <text id="NFT-is-Code,-low-cod" fill="none" font-family="Poppins-Medium, Poppins" font-size="16" font-weight="400" line-spacing="24">
                            <tspan x="0" y="65" fill="#242528">NFT is Code, low-code </tspan>
                            <tspan x="0" y="89" fill="#242528">engagement for security </tspan>
                            <tspan x="0" y="113" fill="#242528">testing</tspan>
                        </text>
                        <g id="01" stroke-width="1" fill="none" fill-rule="evenodd" transform="translate(0.816000, 0.000000)">
                            <path d="M7.176,17.4 C5.688,17.4 4.404,17.056 3.324,16.368 C2.244,15.68 1.42,14.684 0.852,13.38 C0.284,12.076 0,10.52 0,8.712 C0,6.888 0.284,5.324 0.852,4.02 C1.42,2.716 2.24,1.72 3.312,1.032 C4.384,0.344 5.672,0 7.176,0 C9.448,0 11.216,0.764 12.48,2.292 C13.744,3.82 14.376,5.96 14.376,8.712 C14.376,10.52 14.092,12.076 13.524,13.38 C12.956,14.684 12.132,15.68 11.052,16.368 C9.972,17.056 8.68,17.4 7.176,17.4 Z M7.176,14.4 C8.216,14.4 9.012,13.916 9.564,12.948 C10.116,11.98 10.392,10.568 10.392,8.712 C10.392,6.856 10.116,5.44 9.564,4.464 C9.012,3.488 8.216,3 7.176,3 C6.152,3 5.364,3.488 4.812,4.464 C4.26,5.44 3.984,6.856 3.984,8.712 C3.984,10.568 4.26,11.98 4.812,12.948 C5.364,13.916 6.152,14.4 7.176,14.4 Z" id="形状" fill="#242528" fill-rule="nonzero"></path>
                            <path d="M19.488,5.592 C19.184,5.88 18.772,6.104 18.252,6.264 C17.732,6.424 17.176,6.504 16.584,6.504 L15.912,6.504 L15.912,3.024 L16.368,3.024 C17.376,2.992 18.184,2.768 18.792,2.352 C19.4,1.936 19.872,1.272 20.208,0.36 L23.352,0.36 L23.352,17.04 L19.488,17.04 L19.488,5.592 Z" id="路径" fill="#242528" fill-rule="nonzero"></path>
                        </g>
                        <path d="M177.721975,35.54 L177.852116,35.6325925 L234.645767,76.0395503 C236.152814,74.3506174 238.72149,74.0305961 240.608745,75.3733329 C242.63379,76.8141032 243.107437,79.623701 241.666667,81.6487454 C240.225897,83.6737897 237.416299,84.1474374 235.391255,82.7066671 C233.504123,81.3640186 232.964273,78.8326383 234.065491,76.8552301 L177.403,36.54 L0,36.54 L0,35.54 L177.721975,35.54 Z M235.148148,77.0109758 C234.027549,78.5860103 234.395941,80.7712531 235.970976,81.8918522 C237.54601,83.0124513 239.731253,82.6440586 240.851852,81.0690242 C241.972451,79.4939897 241.604059,77.3087469 240.029024,76.1881478 C238.45399,75.0675487 236.268747,75.4359414 235.148148,77.0109758 Z" id="路径-16" fill="#303033" fill-rule="nonzero"></path>
                    </g>
                </g>
            </g>
        </g>
    </g>
</svg>