<?xml version="1.0" encoding="UTF-8"?>
<svg width="260px" height="148px" viewBox="0 0 260 148" version="1.1" xmlns="http://www.w3.org/2000/svg" xmlns:xlink="http://www.w3.org/1999/xlink">
    <title>编组 49</title>
    <defs>
        <rect id="path-1" x="0" y="0" width="260" height="148"></rect>
    </defs>
    <g id="首页" stroke="none" stroke-width="1" fill="none" fill-rule="evenodd">
        <g id="画板" transform="translate(-2657.000000, -607.000000)">
            <g id="编组-49" transform="translate(2657.000000, 607.000000)">
                <mask id="mask-2" fill="white">
                    <use xlink:href="#path-1"></use>
                </mask>
                <g id="蒙版"></g>
                <g mask="url(#mask-2)">
                    <g transform="translate(0.000000, 7.500000)">
                        <text id="Early-stage-members" fill="none" font-family="Poppins-Medium, Poppins" font-size="16" font-weight="400" line-spacing="24">
                            <tspan x="0" y="85.5" fill="#FFFFFF">Early stage members with </tspan>
                            <tspan x="0" y="109.5" fill="#FFFFFF">specific NFTs  participate in the </tspan>
                            <tspan x="0" y="133.5" fill="#FFFFFF">tiering of project revenues </tspan>
                        </text>
                        <path d="M106.914615,0 L107.033127,0.331831802 L125.529625,52.1196738 C127.731937,51.5976243 130.021137,52.805407 130.800094,54.9864862 C131.635985,57.3269798 130.416263,59.901948 128.075769,60.7378386 C125.735276,61.5737292 123.160308,60.3540074 122.324417,58.0135138 C121.54542,55.8323208 122.551736,53.447485 124.586711,52.4563874 L106.21,1 L2.95585778e-12,1 L2.95585778e-12,0 L106.914615,0 Z M125.385078,53.2039033 C123.564694,53.8540404 122.616022,55.8567935 123.266159,57.6771774 C123.916296,59.4975613 125.919049,60.4462338 127.739433,59.7960967 C129.559817,59.1459596 130.50849,57.1432065 129.858352,55.3228226 C129.208215,53.5024387 127.205462,52.5537662 125.385078,53.2039033 Z" id="路径-16备份-3" fill="#FFFFFF" fill-rule="nonzero" transform="translate(65.531741, 30.500613) scale(1, -1) translate(-65.531741, -30.500613) "></path>
                        <g id="04" stroke-width="1" fill="none" fill-rule="evenodd" transform="translate(0.816000, 22.460000)">
                            <path d="M7.176,17.4 C5.688,17.4 4.404,17.056 3.324,16.368 C2.244,15.68 1.42,14.684 0.852,13.38 C0.284,12.076 0,10.52 0,8.712 C0,6.888 0.284,5.324 0.852,4.02 C1.42,2.716 2.24,1.72 3.312,1.032 C4.384,0.344 5.672,0 7.176,0 C9.448,0 11.216,0.764 12.48,2.292 C13.744,3.82 14.376,5.96 14.376,8.712 C14.376,10.52 14.092,12.076 13.524,13.38 C12.956,14.684 12.132,15.68 11.052,16.368 C9.972,17.056 8.68,17.4 7.176,17.4 Z M7.176,14.4 C8.216,14.4 9.012,13.916 9.564,12.948 C10.116,11.98 10.392,10.568 10.392,8.712 C10.392,6.856 10.116,5.44 9.564,4.464 C9.012,3.488 8.216,3 7.176,3 C6.152,3 5.364,3.488 4.812,4.464 C4.26,5.44 3.984,6.856 3.984,8.712 C3.984,10.568 4.26,11.98 4.812,12.948 C5.364,13.916 6.152,14.4 7.176,14.4 Z" id="形状" fill="#FFFFFF" fill-rule="nonzero"></path>
                            <path d="M27.288,13.368 L27.288,17.04 L23.472,17.04 L23.472,13.368 L15.792,13.368 L15.792,10.752 L23.016,0.36 L27.288,0.36 L27.288,10.536 L29.784,10.536 L29.784,13.368 L27.288,13.368 Z M23.616,5.736 C23.616,4.904 23.632,4.288 23.664,3.888 L23.616,3.888 C23.456,4.288 23.136,4.856 22.656,5.592 L20.28,9.096 C19.832,9.752 19.464,10.232 19.176,10.536 L23.616,10.536 L23.616,5.736 Z" id="形状" fill="#FFFFFF" fill-rule="nonzero"></path>
                        </g>
                    </g>
                </g>
            </g>
        </g>
    </g>
</svg>